<svg xmlns="http://www.w3.org/2000/svg" version="1.1" width="122.7mm" height="100.7mm" viewBox = " 0 0 434.764137 356.81131700000003" >
<!-- Front--> 
<g transform="translate(22.500018499999996, 22.500018499999996) " > 
<polygon style="stroke:#000000; fill:none; stroke-width:0.035433099999999995" points="0, 0 15.0590675, 0 15.0590675, 10.62993 30.118135, 10.62993 30.118135, 0 40.748065, 0 40.748065, 10.62993 51.377995, 10.62993 51.377995, 0 62.007925, 0 62.007925, 10.62993 72.637855, 10.62993 72.637855, 0 83.267785, 0 83.267785, 10.62993 93.89771499999999, 10.62993 93.89771499999999, 0 104.52764499999999, 0 104.52764499999999, 10.62993 115.157575, 10.62993 115.157575, 0 125.787505, 0 125.787505, 10.62993 136.417435, 10.62993 136.417435, 0 147.047365, 0 147.047365, 10.62993 162.1064325, 10.62993 162.1064325, 0 177.1655, 0 177.1655, 15.0590675 166.53557, 15.0590675 166.53557, 30.118135 177.1655, 30.118135 177.1655, 40.748065 166.53557, 40.748065 166.53557, 51.377995 177.1655, 51.377995 177.1655, 62.007925 166.53557, 62.007925 166.53557, 72.637855 177.1655, 72.637855 177.1655, 83.267785 166.53557, 83.267785 166.53557, 93.89771499999999 177.1655, 93.89771499999999 177.1655, 104.52764499999999 166.53557, 104.52764499999999 166.53557, 115.157575 177.1655, 115.157575 177.1655, 125.787505 166.53557, 125.787505 166.53557, 140.8465725 177.1655, 140.8465725 177.1655, 155.90564 162.1064325, 155.90564 162.1064325, 145.27571 147.047365, 145.27571 147.047365, 155.90564 136.417435, 155.90564 136.417435, 145.27571 125.787505, 145.27571 125.787505, 155.90564 115.157575, 155.90564 115.157575, 145.27571 104.52764499999999, 145.27571 104.52764499999999, 155.90564 93.89771499999999, 155.90564 93.89771499999999, 145.27571 83.267785, 145.27571 83.267785, 155.90564 72.637855, 155.90564 72.637855, 145.27571 62.007925, 145.27571 62.007925, 155.90564 51.377995, 155.90564 51.377995, 145.27571 40.748065, 145.27571 40.748065, 155.90564 30.118135, 155.90564 30.118135, 145.27571 15.0590675, 145.27571 15.0590675, 155.90564 0, 155.90564 0, 140.8465725 10.62993, 140.8465725 10.62993, 125.787505 0, 125.787505 0, 115.157575 10.62993, 115.157575 10.62993, 104.52764499999999 0, 104.52764499999999 0, 93.89771499999999 10.62993, 93.89771499999999 10.62993, 83.267785 0, 83.267785 0, 72.637855 10.62993, 72.637855 10.62993, 62.007925 0, 62.007925 0, 51.377995 10.62993, 51.377995 10.62993, 40.748065 0, 40.748065 0, 30.118135 10.62993, 30.118135 10.62993, 15.0590675 0, 15.0590675 "/> 
 <rect x="63.779579999999996" y="24.80317" width="49.60634" height="10.62993" rx="0" ry="0" style="stroke:#000000;stroke-width:0.035433099999999995;fill:none" /> 
</g>
<!-- Back--> 
<g transform="translate(199.6655185, 22.500018499999996) " > 
<polygon style="stroke:#000000; fill:none; stroke-width:0.035433099999999995" points="0, 0 15.0590675, 0 15.0590675, 10.62993 30.118135, 10.62993 30.118135, 0 40.748065, 0 40.748065, 10.62993 51.377995, 10.62993 51.377995, 0 62.007925, 0 62.007925, 10.62993 72.637855, 10.62993 72.637855, 0 83.267785, 0 83.267785, 10.62993 93.89771499999999, 10.62993 93.89771499999999, 0 104.52764499999999, 0 104.52764499999999, 10.62993 115.157575, 10.62993 115.157575, 0 125.787505, 0 125.787505, 10.62993 136.417435, 10.62993 136.417435, 0 147.047365, 0 147.047365, 10.62993 162.1064325, 10.62993 162.1064325, 0 177.1655, 0 177.1655, 15.0590675 166.53557, 15.0590675 166.53557, 30.118135 177.1655, 30.118135 177.1655, 40.748065 166.53557, 40.748065 166.53557, 51.377995 177.1655, 51.377995 177.1655, 62.007925 166.53557, 62.007925 166.53557, 72.637855 177.1655, 72.637855 177.1655, 83.267785 166.53557, 83.267785 166.53557, 93.89771499999999 177.1655, 93.89771499999999 177.1655, 104.52764499999999 166.53557, 104.52764499999999 166.53557, 115.157575 177.1655, 115.157575 177.1655, 125.787505 166.53557, 125.787505 166.53557, 140.8465725 177.1655, 140.8465725 177.1655, 155.90564 162.1064325, 155.90564 162.1064325, 145.27571 147.047365, 145.27571 147.047365, 155.90564 136.417435, 155.90564 136.417435, 145.27571 125.787505, 145.27571 125.787505, 155.90564 115.157575, 155.90564 115.157575, 145.27571 104.52764499999999, 145.27571 104.52764499999999, 155.90564 93.89771499999999, 155.90564 93.89771499999999, 145.27571 83.267785, 145.27571 83.267785, 155.90564 72.637855, 155.90564 72.637855, 145.27571 62.007925, 145.27571 62.007925, 155.90564 51.377995, 155.90564 51.377995, 145.27571 40.748065, 145.27571 40.748065, 155.90564 30.118135, 155.90564 30.118135, 145.27571 15.0590675, 145.27571 15.0590675, 155.90564 0, 155.90564 0, 140.8465725 10.62993, 140.8465725 10.62993, 125.787505 0, 125.787505 0, 115.157575 10.62993, 115.157575 10.62993, 104.52764499999999 0, 104.52764499999999 0, 93.89771499999999 10.62993, 93.89771499999999 10.62993, 83.267785 0, 83.267785 0, 72.637855 10.62993, 72.637855 10.62993, 62.007925 0, 62.007925 0, 51.377995 10.62993, 51.377995 10.62993, 40.748065 0, 40.748065 0, 30.118135 10.62993, 30.118135 10.62993, 15.0590675 0, 15.0590675 "/> 
 <circle cx="88.58275" cy="77.95282" r="35.433099999999996" style="stroke:#000000;stroke-width:0.035433099999999995;fill:none" /> 
</g>
<!-- Left--> 
<g transform="translate(376.83101849999997, 22.500018499999996) " > 
<polygon style="stroke:#000000; fill:none; stroke-width:0.035433099999999995" points="10.62993, 0 7.08662, 0 7.08662, 10.62993 14.17324, 10.62993 14.17324, 0 21.25986, 0 21.25986, 10.62993 28.34648, 10.62993 28.34648, 0 24.803169999999994, 0 24.803169999999994, 15.0590675 35.433099999999996, 15.0590675 35.433099999999996, 30.118135 24.803169999999994, 30.118135 24.803169999999994, 40.748065 35.433099999999996, 40.748065 35.433099999999996, 51.377995 24.803169999999994, 51.377995 24.803169999999994, 62.007925 35.433099999999996, 62.007925 35.433099999999996, 72.637855 24.803169999999994, 72.637855 24.803169999999994, 83.267785 35.433099999999996, 83.267785 35.433099999999996, 93.89771499999999 24.803169999999994, 93.89771499999999 24.803169999999994, 104.52764499999999 35.433099999999996, 104.52764499999999 35.433099999999996, 115.157575 24.803169999999994, 115.157575 24.803169999999994, 125.787505 35.433099999999996, 125.787505 35.433099999999996, 140.8465725 24.803169999999994, 140.8465725 24.803169999999994, 155.90564 28.34648, 155.90564 28.34648, 145.27571 21.25986, 145.27571 21.25986, 155.90564 14.17324, 155.90564 14.17324, 145.27571 7.08662, 145.27571 7.08662, 155.90564 10.62993, 155.90564 10.62993, 140.8465725 0, 140.8465725 0, 125.787505 10.62993, 125.787505 10.62993, 115.157575 0, 115.157575 0, 104.52764499999999 10.62993, 104.52764499999999 10.62993, 93.89771499999999 0, 93.89771499999999 0, 83.267785 10.62993, 83.267785 10.62993, 72.637855 0, 72.637855 0, 62.007925 10.62993, 62.007925 10.62993, 51.377995 0, 51.377995 0, 40.748065 10.62993, 40.748065 10.62993, 30.118135 0, 30.118135 0, 15.0590675 10.62993, 15.0590675 "/> 
</g>
<!-- Right--> 
<g transform="translate(376.83101849999997, 178.40565850000002) " > 
<polygon style="stroke:#000000; fill:none; stroke-width:0.035433099999999995" points="10.62993, 0 7.08662, 0 7.08662, 10.62993 14.17324, 10.62993 14.17324, 0 21.25986, 0 21.25986, 10.62993 28.34648, 10.62993 28.34648, 0 24.803169999999994, 0 24.803169999999994, 15.0590675 35.433099999999996, 15.0590675 35.433099999999996, 30.118135 24.803169999999994, 30.118135 24.803169999999994, 40.748065 35.433099999999996, 40.748065 35.433099999999996, 51.377995 24.803169999999994, 51.377995 24.803169999999994, 62.007925 35.433099999999996, 62.007925 35.433099999999996, 72.637855 24.803169999999994, 72.637855 24.803169999999994, 83.267785 35.433099999999996, 83.267785 35.433099999999996, 93.89771499999999 24.803169999999994, 93.89771499999999 24.803169999999994, 104.52764499999999 35.433099999999996, 104.52764499999999 35.433099999999996, 115.157575 24.803169999999994, 115.157575 24.803169999999994, 125.787505 35.433099999999996, 125.787505 35.433099999999996, 140.8465725 24.803169999999994, 140.8465725 24.803169999999994, 155.90564 28.34648, 155.90564 28.34648, 145.27571 21.25986, 145.27571 21.25986, 155.90564 14.17324, 155.90564 14.17324, 145.27571 7.08662, 145.27571 7.08662, 155.90564 10.62993, 155.90564 10.62993, 140.8465725 0, 140.8465725 0, 125.787505 10.62993, 125.787505 10.62993, 115.157575 0, 115.157575 0, 104.52764499999999 10.62993, 104.52764499999999 10.62993, 93.89771499999999 0, 93.89771499999999 0, 83.267785 10.62993, 83.267785 10.62993, 72.637855 0, 72.637855 0, 62.007925 10.62993, 62.007925 10.62993, 51.377995 0, 51.377995 0, 40.748065 10.62993, 40.748065 10.62993, 30.118135 0, 30.118135 0, 15.0590675 10.62993, 15.0590675 "/> 
</g>
<!-- Top--> 
<g transform="translate(22.500018499999996, 178.40565850000002) " > 
<polygon style="stroke:#000000; fill:none; stroke-width:0.035433099999999995" points="10.62993, 10.62993 15.0590675, 10.62993 15.0590675, 0 30.118135, 0 30.118135, 10.62993 40.748065, 10.62993 40.748065, 0 51.377995, 0 51.377995, 10.62993 62.007925, 10.62993 62.007925, 0 72.637855, 0 72.637855, 10.62993 83.267785, 10.62993 83.267785, 0 93.89771499999999, 0 93.89771499999999, 10.62993 104.52764499999999, 10.62993 104.52764499999999, 0 115.157575, 0 115.157575, 10.62993 125.787505, 10.62993 125.787505, 0 136.417435, 0 136.417435, 10.62993 147.047365, 10.62993 147.047365, 0 162.1064325, 0 162.1064325, 10.62993 166.53557, 10.62993 166.53557, 7.08662 177.1655, 7.08662 177.1655, 14.17324 166.53557, 14.17324 166.53557, 21.25986 177.1655, 21.25986 177.1655, 28.34648 166.53557, 28.34648 166.53557, 24.803169999999994 162.1064325, 24.803169999999994 162.1064325, 35.433099999999996 147.047365, 35.433099999999996 147.047365, 24.803169999999994 136.417435, 24.803169999999994 136.417435, 35.433099999999996 125.787505, 35.433099999999996 125.787505, 24.803169999999994 115.157575, 24.803169999999994 115.157575, 35.433099999999996 104.52764499999999, 35.433099999999996 104.52764499999999, 24.803169999999994 93.89771499999999, 24.803169999999994 93.89771499999999, 35.433099999999996 83.267785, 35.433099999999996 83.267785, 24.803169999999994 72.637855, 24.803169999999994 72.637855, 35.433099999999996 62.007925, 35.433099999999996 62.007925, 24.803169999999994 51.377995, 24.803169999999994 51.377995, 35.433099999999996 40.748065, 35.433099999999996 40.748065, 24.803169999999994 30.118135, 24.803169999999994 30.118135, 35.433099999999996 15.0590675, 35.433099999999996 15.0590675, 24.803169999999994 10.62993, 24.803169999999994 10.62993, 28.34648 0, 28.34648 0, 21.25986 10.62993, 21.25986 10.62993, 14.17324 0, 14.17324 0, 7.08662 10.62993, 7.08662 "/> 
</g>
<!-- Bottom--> 
<g transform="translate(199.6655185, 178.40565850000002) " > 
<polygon style="stroke:#000000; fill:none; stroke-width:0.035433099999999995" points="10.62993, 10.62993 15.0590675, 10.62993 15.0590675, 0 30.118135, 0 30.118135, 10.62993 40.748065, 10.62993 40.748065, 0 51.377995, 0 51.377995, 10.62993 62.007925, 10.62993 62.007925, 0 72.637855, 0 72.637855, 10.62993 83.267785, 10.62993 83.267785, 0 93.89771499999999, 0 93.89771499999999, 10.62993 104.52764499999999, 10.62993 104.52764499999999, 0 115.157575, 0 115.157575, 10.62993 125.787505, 10.62993 125.787505, 0 136.417435, 0 136.417435, 10.62993 147.047365, 10.62993 147.047365, 0 162.1064325, 0 162.1064325, 10.62993 166.53557, 10.62993 166.53557, 7.08662 177.1655, 7.08662 177.1655, 14.17324 166.53557, 14.17324 166.53557, 21.25986 177.1655, 21.25986 177.1655, 28.34648 166.53557, 28.34648 166.53557, 24.803169999999994 162.1064325, 24.803169999999994 162.1064325, 35.433099999999996 147.047365, 35.433099999999996 147.047365, 24.803169999999994 136.417435, 24.803169999999994 136.417435, 35.433099999999996 125.787505, 35.433099999999996 125.787505, 24.803169999999994 115.157575, 24.803169999999994 115.157575, 35.433099999999996 104.52764499999999, 35.433099999999996 104.52764499999999, 24.803169999999994 93.89771499999999, 24.803169999999994 93.89771499999999, 35.433099999999996 83.267785, 35.433099999999996 83.267785, 24.803169999999994 72.637855, 24.803169999999994 72.637855, 35.433099999999996 62.007925, 35.433099999999996 62.007925, 24.803169999999994 51.377995, 24.803169999999994 51.377995, 35.433099999999996 40.748065, 35.433099999999996 40.748065, 24.803169999999994 30.118135, 24.803169999999994 30.118135, 35.433099999999996 15.0590675, 35.433099999999996 15.0590675, 24.803169999999994 10.62993, 24.803169999999994 10.62993, 28.34648 0, 28.34648 0, 21.25986 10.62993, 21.25986 10.62993, 14.17324 0, 14.17324 0, 7.08662 10.62993, 7.08662 "/> 
</g></svg>