<svg xmlns="http://www.w3.org/2000/svg" version="1.1" width="462.7mm" height="212.7mm" viewBox = " 0 0 1639.489537 753.6620369999999" >
<!-- Front--> 
<g transform="translate(22.5000185, 22.5000185) " > 
<polygon style="stroke:#000000; fill:none; stroke-width:0.90000074" points="0, 0 31.889789999999998, 0 31.889789999999998, 10.62993 63.779579999999996, 10.62993 63.779579999999996, 0 85.03944, 0 85.03944, 10.62993 106.29929999999999, 10.62993 106.29929999999999, 0 127.55915999999999, 0 127.55915999999999, 10.62993 148.81902, 10.62993 148.81902, 0 170.07888, 0 170.07888, 10.62993 191.33873999999997, 10.62993 191.33873999999997, 0 212.59859999999998, 0 212.59859999999998, 10.62993 233.85845999999998, 10.62993 233.85845999999998, 0 255.11831999999998, 0 255.11831999999998, 10.62993 276.37818, 10.62993 276.37818, 0 297.63804, 0 297.63804, 10.62993 318.8979, 10.62993 318.8979, 0 340.15776, 0 340.15776, 10.62993 361.41762, 10.62993 361.41762, 0 382.67748, 0 382.67748, 10.62993 403.93734, 10.62993 403.93734, 0 425.1972, 0 425.1972, 10.62993 446.45706, 10.62993 446.45706, 0 467.71692, 0 467.71692, 10.62993 499.60671, 10.62993 499.60671, 0 531.4965, 0 531.4965, 28.34648 520.86657, 28.34648 520.86657, 56.69296 531.4965, 56.69296 531.4965, 77.95282 520.86657, 77.95282 520.86657, 99.21268 531.4965, 99.21268 531.4965, 120.47254 520.86657, 120.47254 520.86657, 148.81902 531.4965, 148.81902 531.4965, 177.1655 499.60671, 177.1655 499.60671, 166.53557 467.71692, 166.53557 467.71692, 177.1655 446.45706, 177.1655 446.45706, 166.53557 425.1972, 166.53557 425.1972, 177.1655 403.93734, 177.1655 403.93734, 166.53557 382.67748, 166.53557 382.67748, 177.1655 361.41762, 177.1655 361.41762, 166.53557 340.15776, 166.53557 340.15776, 177.1655 318.8979, 177.1655 318.8979, 166.53557 297.63804, 166.53557 297.63804, 177.1655 276.37818, 177.1655 276.37818, 166.53557 255.11831999999998, 166.53557 255.11831999999998, 177.1655 233.85845999999998, 177.1655 233.85845999999998, 166.53557 212.59859999999998, 166.53557 212.59859999999998, 177.1655 191.33873999999997, 177.1655 191.33873999999997, 166.53557 170.07888, 166.53557 170.07888, 177.1655 148.81902, 177.1655 148.81902, 166.53557 127.55915999999999, 166.53557 127.55915999999999, 177.1655 106.29929999999999, 177.1655 106.29929999999999, 166.53557 85.03944, 166.53557 85.03944, 177.1655 63.779579999999996, 177.1655 63.779579999999996, 166.53557 31.889789999999998, 166.53557 31.889789999999998, 177.1655 0, 177.1655 0, 148.81902 10.62993, 148.81902 10.62993, 120.47254 0, 120.47254 0, 99.21268 10.62993, 99.21268 10.62993, 77.95282 0, 77.95282 0, 56.69296 10.62993, 56.69296 10.62993, 28.34648 0, 28.34648 "/> 
</g>
<!-- Back--> 
<g transform="translate(553.9965185, 22.5000185) " > 
<polygon style="stroke:#000000; fill:none; stroke-width:0.90000074" points="0, 0 31.889789999999998, 0 31.889789999999998, 10.62993 63.779579999999996, 10.62993 63.779579999999996, 0 85.03944, 0 85.03944, 10.62993 106.29929999999999, 10.62993 106.29929999999999, 0 127.55915999999999, 0 127.55915999999999, 10.62993 148.81902, 10.62993 148.81902, 0 170.07888, 0 170.07888, 10.62993 191.33873999999997, 10.62993 191.33873999999997, 0 212.59859999999998, 0 212.59859999999998, 10.62993 233.85845999999998, 10.62993 233.85845999999998, 0 255.11831999999998, 0 255.11831999999998, 10.62993 276.37818, 10.62993 276.37818, 0 297.63804, 0 297.63804, 10.62993 318.8979, 10.62993 318.8979, 0 340.15776, 0 340.15776, 10.62993 361.41762, 10.62993 361.41762, 0 382.67748, 0 382.67748, 10.62993 403.93734, 10.62993 403.93734, 0 425.1972, 0 425.1972, 10.62993 446.45706, 10.62993 446.45706, 0 467.71692, 0 467.71692, 10.62993 499.60671, 10.62993 499.60671, 0 531.4965, 0 531.4965, 28.34648 520.86657, 28.34648 520.86657, 56.69296 531.4965, 56.69296 531.4965, 77.95282 520.86657, 77.95282 520.86657, 99.21268 531.4965, 99.21268 531.4965, 120.47254 520.86657, 120.47254 520.86657, 148.81902 531.4965, 148.81902 531.4965, 177.1655 499.60671, 177.1655 499.60671, 166.53557 467.71692, 166.53557 467.71692, 177.1655 446.45706, 177.1655 446.45706, 166.53557 425.1972, 166.53557 425.1972, 177.1655 403.93734, 177.1655 403.93734, 166.53557 382.67748, 166.53557 382.67748, 177.1655 361.41762, 177.1655 361.41762, 166.53557 340.15776, 166.53557 340.15776, 177.1655 318.8979, 177.1655 318.8979, 166.53557 297.63804, 166.53557 297.63804, 177.1655 276.37818, 177.1655 276.37818, 166.53557 255.11831999999998, 166.53557 255.11831999999998, 177.1655 233.85845999999998, 177.1655 233.85845999999998, 166.53557 212.59859999999998, 166.53557 212.59859999999998, 177.1655 191.33873999999997, 177.1655 191.33873999999997, 166.53557 170.07888, 166.53557 170.07888, 177.1655 148.81902, 177.1655 148.81902, 166.53557 127.55915999999999, 166.53557 127.55915999999999, 177.1655 106.29929999999999, 177.1655 106.29929999999999, 166.53557 85.03944, 166.53557 85.03944, 177.1655 63.779579999999996, 177.1655 63.779579999999996, 166.53557 31.889789999999998, 166.53557 31.889789999999998, 177.1655 0, 177.1655 0, 148.81902 10.62993, 148.81902 10.62993, 120.47254 0, 120.47254 0, 99.21268 10.62993, 99.21268 10.62993, 77.95282 0, 77.95282 0, 56.69296 10.62993, 56.69296 10.62993, 28.34648 0, 28.34648 "/> 
</g>
<!-- Left--> 
<g transform="translate(1085.4930185, 22.5000185) " > 
<polygon style="stroke:#000000; fill:none; stroke-width:0.90000074" points="10.62993, 0 31.889789999999998, 0 31.889789999999998, 10.62993 63.779579999999996, 10.62993 63.779579999999996, 0 85.03944, 0 85.03944, 10.62993 106.29929999999999, 10.62993 106.29929999999999, 0 127.55915999999999, 0 127.55915999999999, 10.62993 148.81902, 10.62993 148.81902, 0 170.07888, 0 170.07888, 10.62993 191.33873999999997, 10.62993 191.33873999999997, 0 212.59859999999998, 0 212.59859999999998, 10.62993 233.85845999999998, 10.62993 233.85845999999998, 0 255.11831999999998, 0 255.11831999999998, 10.62993 276.37818, 10.62993 276.37818, 0 297.63804, 0 297.63804, 10.62993 318.8979, 10.62993 318.8979, 0 340.15776, 0 340.15776, 10.62993 361.41762, 10.62993 361.41762, 0 382.67748, 0 382.67748, 10.62993 403.93734, 10.62993 403.93734, 0 425.1972, 0 425.1972, 10.62993 446.45706, 10.62993 446.45706, 0 467.71692, 0 467.71692, 10.62993 499.60671, 10.62993 499.60671, 0 520.86657, 0 520.86657, 28.34648 531.4965, 28.34648 531.4965, 56.69296 520.86657, 56.69296 520.86657, 77.95282 531.4965, 77.95282 531.4965, 99.21268 520.86657, 99.21268 520.86657, 120.47254 531.4965, 120.47254 531.4965, 148.81902 520.86657, 148.81902 520.86657, 177.1655 499.60671, 177.1655 499.60671, 166.53557 467.71692, 166.53557 467.71692, 177.1655 446.45706, 177.1655 446.45706, 166.53557 425.1972, 166.53557 425.1972, 177.1655 403.93734, 177.1655 403.93734, 166.53557 382.67748, 166.53557 382.67748, 177.1655 361.41762, 177.1655 361.41762, 166.53557 340.15776, 166.53557 340.15776, 177.1655 318.8979, 177.1655 318.8979, 166.53557 297.63804, 166.53557 297.63804, 177.1655 276.37818, 177.1655 276.37818, 166.53557 255.11831999999998, 166.53557 255.11831999999998, 177.1655 233.85845999999998, 177.1655 233.85845999999998, 166.53557 212.59859999999998, 166.53557 212.59859999999998, 177.1655 191.33873999999997, 177.1655 191.33873999999997, 166.53557 170.07888, 166.53557 170.07888, 177.1655 148.81902, 177.1655 148.81902, 166.53557 127.55915999999999, 166.53557 127.55915999999999, 177.1655 106.29929999999999, 177.1655 106.29929999999999, 166.53557 85.03944, 166.53557 85.03944, 177.1655 63.779579999999996, 177.1655 63.779579999999996, 166.53557 31.889789999999998, 166.53557 31.889789999999998, 177.1655 10.62993, 177.1655 10.62993, 148.81902 0, 148.81902 0, 120.47254 10.62993, 120.47254 10.62993, 99.21268 0, 99.21268 0, 77.95282 10.62993, 77.95282 10.62993, 56.69296 0, 56.69296 0, 28.34648 10.62993, 28.34648 "/> 
</g>
<!-- Right--> 
<g transform="translate(1085.4930185, 199.6655185) " > 
<polygon style="stroke:#000000; fill:none; stroke-width:0.90000074" points="10.62993, 0 31.889789999999998, 0 31.889789999999998, 10.62993 63.779579999999996, 10.62993 63.779579999999996, 0 85.03944, 0 85.03944, 10.62993 106.29929999999999, 10.62993 106.29929999999999, 0 127.55915999999999, 0 127.55915999999999, 10.62993 148.81902, 10.62993 148.81902, 0 170.07888, 0 170.07888, 10.62993 191.33873999999997, 10.62993 191.33873999999997, 0 212.59859999999998, 0 212.59859999999998, 10.62993 233.85845999999998, 10.62993 233.85845999999998, 0 255.11831999999998, 0 255.11831999999998, 10.62993 276.37818, 10.62993 276.37818, 0 297.63804, 0 297.63804, 10.62993 318.8979, 10.62993 318.8979, 0 340.15776, 0 340.15776, 10.62993 361.41762, 10.62993 361.41762, 0 382.67748, 0 382.67748, 10.62993 403.93734, 10.62993 403.93734, 0 425.1972, 0 425.1972, 10.62993 446.45706, 10.62993 446.45706, 0 467.71692, 0 467.71692, 10.62993 499.60671, 10.62993 499.60671, 0 520.86657, 0 520.86657, 28.34648 531.4965, 28.34648 531.4965, 56.69296 520.86657, 56.69296 520.86657, 77.95282 531.4965, 77.95282 531.4965, 99.21268 520.86657, 99.21268 520.86657, 120.47254 531.4965, 120.47254 531.4965, 148.81902 520.86657, 148.81902 520.86657, 177.1655 499.60671, 177.1655 499.60671, 166.53557 467.71692, 166.53557 467.71692, 177.1655 446.45706, 177.1655 446.45706, 166.53557 425.1972, 166.53557 425.1972, 177.1655 403.93734, 177.1655 403.93734, 166.53557 382.67748, 166.53557 382.67748, 177.1655 361.41762, 177.1655 361.41762, 166.53557 340.15776, 166.53557 340.15776, 177.1655 318.8979, 177.1655 318.8979, 166.53557 297.63804, 166.53557 297.63804, 177.1655 276.37818, 177.1655 276.37818, 166.53557 255.11831999999998, 166.53557 255.11831999999998, 177.1655 233.85845999999998, 177.1655 233.85845999999998, 166.53557 212.59859999999998, 166.53557 212.59859999999998, 177.1655 191.33873999999997, 177.1655 191.33873999999997, 166.53557 170.07888, 166.53557 170.07888, 177.1655 148.81902, 177.1655 148.81902, 166.53557 127.55915999999999, 166.53557 127.55915999999999, 177.1655 106.29929999999999, 177.1655 106.29929999999999, 166.53557 85.03944, 166.53557 85.03944, 177.1655 63.779579999999996, 177.1655 63.779579999999996, 166.53557 31.889789999999998, 166.53557 31.889789999999998, 177.1655 10.62993, 177.1655 10.62993, 148.81902 0, 148.81902 0, 120.47254 10.62993, 120.47254 10.62993, 99.21268 0, 99.21268 0, 77.95282 10.62993, 77.95282 10.62993, 56.69296 0, 56.69296 0, 28.34648 10.62993, 28.34648 "/> 
</g>
<!-- Top--> 
<g transform="translate(22.5000185, 199.6655185) " > 
<polygon style="stroke:#000000; fill:none; stroke-width:0.90000074" points="10.62993, 10.62993 31.889789999999998, 10.62993 31.889789999999998, 0 63.779579999999996, 0 63.779579999999996, 10.62993 85.03944, 10.62993 85.03944, 0 106.29929999999999, 0 106.29929999999999, 10.62993 127.55915999999999, 10.62993 127.55915999999999, 0 148.81902, 0 148.81902, 10.62993 170.07888, 10.62993 170.07888, 0 191.33873999999997, 0 191.33873999999997, 10.62993 212.59859999999998, 10.62993 212.59859999999998, 0 233.85845999999998, 0 233.85845999999998, 10.62993 255.11831999999998, 10.62993 255.11831999999998, 0 276.37818, 0 276.37818, 10.62993 297.63804, 10.62993 297.63804, 0 318.8979, 0 318.8979, 10.62993 340.15776, 10.62993 340.15776, 0 361.41762, 0 361.41762, 10.62993 382.67748, 10.62993 382.67748, 0 403.93734, 0 403.93734, 10.62993 425.1972, 10.62993 425.1972, 0 446.45706, 0 446.45706, 10.62993 467.71692, 10.62993 467.71692, 0 499.60671, 0 499.60671, 10.62993 520.86657, 10.62993 520.86657, 31.889789999999998 531.4965, 31.889789999999998 531.4965, 63.779579999999996 520.86657, 63.779579999999996 520.86657, 85.03944 531.4965, 85.03944 531.4965, 106.29929999999999 520.86657, 106.29929999999999 520.86657, 127.55915999999999 531.4965, 127.55915999999999 531.4965, 148.81902 520.86657, 148.81902 520.86657, 170.07888 531.4965, 170.07888 531.4965, 191.33873999999997 520.86657, 191.33873999999997 520.86657, 212.59859999999998 531.4965, 212.59859999999998 531.4965, 233.85845999999998 520.86657, 233.85845999999998 520.86657, 255.11831999999998 531.4965, 255.11831999999998 531.4965, 276.37818 520.86657, 276.37818 520.86657, 297.63804 531.4965, 297.63804 531.4965, 318.8979 520.86657, 318.8979 520.86657, 340.15776 531.4965, 340.15776 531.4965, 361.41762 520.86657, 361.41762 520.86657, 382.67748 531.4965, 382.67748 531.4965, 403.93734 520.86657, 403.93734 520.86657, 425.1972 531.4965, 425.1972 531.4965, 446.45706 520.86657, 446.45706 520.86657, 467.71692 531.4965, 467.71692 531.4965, 499.60671 520.86657, 499.60671 520.86657, 520.86657 499.60671, 520.86657 499.60671, 531.4965 467.71692, 531.4965 467.71692, 520.86657 446.45706, 520.86657 446.45706, 531.4965 425.1972, 531.4965 425.1972, 520.86657 403.93734, 520.86657 403.93734, 531.4965 382.67748, 531.4965 382.67748, 520.86657 361.41762, 520.86657 361.41762, 531.4965 340.15776, 531.4965 340.15776, 520.86657 318.8979, 520.86657 318.8979, 531.4965 297.63804, 531.4965 297.63804, 520.86657 276.37818, 520.86657 276.37818, 531.4965 255.11831999999998, 531.4965 255.11831999999998, 520.86657 233.85845999999998, 520.86657 233.85845999999998, 531.4965 212.59859999999998, 531.4965 212.59859999999998, 520.86657 191.33873999999997, 520.86657 191.33873999999997, 531.4965 170.07888, 531.4965 170.07888, 520.86657 148.81902, 520.86657 148.81902, 531.4965 127.55915999999999, 531.4965 127.55915999999999, 520.86657 106.29929999999999, 520.86657 106.29929999999999, 531.4965 85.03944, 531.4965 85.03944, 520.86657 63.779579999999996, 520.86657 63.779579999999996, 531.4965 31.889789999999998, 531.4965 31.889789999999998, 520.86657 10.62993, 520.86657 10.62993, 499.60671 0, 499.60671 0, 467.71692 10.62993, 467.71692 10.62993, 446.45706 0, 446.45706 0, 425.1972 10.62993, 425.1972 10.62993, 403.93734 0, 403.93734 0, 382.67748 10.62993, 382.67748 10.62993, 361.41762 0, 361.41762 0, 340.15776 10.62993, 340.15776 10.62993, 318.8979 0, 318.8979 0, 297.63804 10.62993, 297.63804 10.62993, 276.37818 0, 276.37818 0, 255.11831999999998 10.62993, 255.11831999999998 10.62993, 233.85845999999998 0, 233.85845999999998 0, 212.59859999999998 10.62993, 212.59859999999998 10.62993, 191.33873999999997 0, 191.33873999999997 0, 170.07888 10.62993, 170.07888 10.62993, 148.81902 0, 148.81902 0, 127.55915999999999 10.62993, 127.55915999999999 10.62993, 106.29929999999999 0, 106.29929999999999 0, 85.03944 10.62993, 85.03944 10.62993, 63.779579999999996 0, 63.779579999999996 0, 31.889789999999998 10.62993, 31.889789999999998 "/> 
 <circle cx="88.58275" cy="88.58275" r="10.62993" style="stroke:#000000;stroke-width:0.90000074;fill:none" /> 
 
 <g transform="scale(0.017301318359374998)" ><g transform="translate(-4560,819)" ><path transform="translate(16384, 20480.000000000004)rotate(180) scale(-1, 1)" stroke-width="0" fill="#000000" d="M981 899l-66 -340h283v-129h-307l-84 -430h-137l84 430h-303l-82 -430h-136l80 430h-262v129h287l68 340h-277v127h299l82 436h139l-82 -436h305l84 436h134l-84 -436h264v-127h-289zM475 559h303l66 340h-303z"/>
<path transform="translate(17707, 20480.000000000004)rotate(180) scale(-1, 1)" stroke-width="0" fill="#000000" d="M1026 389c0 -128.667 -46.666 -228.999 -139.999 -300.999s-220 -108 -380 -108c-173.333 0 -306.666 22.333 -399.999 67v164c60 -25.333 125.333 -45.333 196 -60s140.667 -22 210 -22c113.333 0 198.666 21.5 255.999 64.5s86 102.833 86 179.5 c0 50.667 -10.167 92.167 -30.5 124.5s-54.333 62.166 -102 89.499s-120.167 58.333 -217.5 93c-136 48.667 -233.167 106.334 -291.5 173.001s-87.5 153.667 -87.5 261c0 112.667 42.333 202.334 127 269.001s196.667 100 336 100c145.333 0 279 -26.667 401 -80l-53 -148 c-120.667 50.667 -238 76 -352 76c-90 0 -160.333 -19.333 -211 -58s-76 -92.334 -76 -161.001c0 -50.667 9.33301 -92.167 28 -124.5s50.167 -62 94.5 -89s112.166 -56.833 203.499 -89.5c153.333 -54.667 258.833 -113.334 316.5 -176.001s86.5 -144 86.5 -244z"/>
<path transform="translate(18831, 20480.000000000004)rotate(180) scale(-1, 1)" stroke-width="0" fill="#000000" d="M1311 0h-170v688h-770v-688h-170v1462h170v-622h770v622h170v-1462z"/>
<path transform="translate(20342, 20480.000000000004)rotate(180) scale(-1, 1)" stroke-width="0" fill="#000000" d="M1368 745c0 -241.333 -65.5 -425.833 -196.5 -553.5s-319.5 -191.5 -565.5 -191.5h-405v1462h448c227.333 0 404 -63 530 -189s189 -302 189 -528zM1188 739c0 190.667 -47.832 334.333 -143.499 431s-237.834 145 -426.501 145h-247v-1168h207 c202.667 0 355 49.833 457 149.5s153 247.167 153 442.5z"/>
<path transform="translate(21835, 20480.000000000004)rotate(180) scale(-1, 1)" stroke-width="0" fill="#000000" d="M201 1462h413c194 0 334.333 -29 421 -87s130 -149.667 130 -275c0 -86.667 -24.167 -158.167 -72.5 -214.5s-118.833 -92.833 -211.5 -109.5v-10c222 -38 333 -154.667 333 -350c0 -130.667 -44.167 -232.667 -132.5 -306s-211.833 -110 -370.5 -110h-510v1462zM371 836 h280c120 0 206.333 18.833 259 56.5s79 101.167 79 190.5c0 82 -29.333 141.167 -88 177.5s-152 54.5 -280 54.5h-250v-479zM371 692v-547.001h305c118 0 206.833 22.833 266.5 68.5s89.5 117.167 89.5 214.5c0 90.667 -30.5 157.334 -91.5 200.001s-153.833 64 -278.5 64 h-291z"/>
<path transform="translate(23162, 20480.000000000004)rotate(180) scale(-1, 1)" stroke-width="0" fill="#000000" d="M715 0h-162.001v1042c0 86.667 2.66699 168.667 8 246c-14 -14 -29.667 -28.667 -47 -44s-96.666 -80.333 -237.999 -195l-88 114l387 299h140v-1462z"/>
<path transform="translate(24333, 20480.000000000004)rotate(180) scale(-1, 1)" stroke-width="0" fill="#000000" d="M285 0l606 1309h-797v153h973v-133l-598 -1329h-184z"/>
</g></g> 
 
 <g transform="scale(0.017301318359374998)" ><g transform="translate(-7823.5,819)" ><path transform="translate(16384, 16384)rotate(180) scale(-1, 1)" stroke-width="0" fill="#000000" d="M1368 745c0 -241.333 -65.5 -425.833 -196.5 -553.5s-319.5 -191.5 -565.5 -191.5h-405v1462h448c227.333 0 404 -63 530 -189s189 -302 189 -528zM1188 739c0 190.667 -47.832 334.333 -143.499 431s-237.834 145 -426.501 145h-247v-1168h207 c202.667 0 355 49.833 457 149.5s153 247.167 153 442.5z"/>
<path transform="translate(17877, 16384)rotate(180) scale(-1, 1)" stroke-width="0" fill="#000000" d="M201 0v1462h170v-1462h-170z"/>
<path transform="translate(18448, 16384)rotate(180) scale(-1, 1)" stroke-width="0" fill="#000000" d="M573 731l390 731h184l-488 -895v-567h-172v559l-487 903h186z"/>
<path transform="translate(19595, 16384)rotate(180) scale(-1, 1)" stroke-width="0" fill="#000000" d=""/>
<path transform="translate(20127, 16384)rotate(180) scale(-1, 1)" stroke-width="0" fill="#000000" d="M371 0h-170v1462h815v-151h-645v-535h606v-151h-606v-625z"/>
<path transform="translate(21184, 16384)rotate(180) scale(-1, 1)" stroke-width="0" fill="#000000" d="M342 0h-166v1556h166v-1556z"/>
<path transform="translate(21702, 16384)rotate(180) scale(-1, 1)" stroke-width="0" fill="#000000" d="M332 1096l-0.00292969 -710.999c0 -89.333 20.333 -156 61 -200s104.334 -66 191.001 -66c114.667 0 198.5 31.333 251.5 94s79.5 165 79.5 307v576h166v-1096h-137l-24 147h-9c-34 -54 -81.167 -95.333 -141.5 -124s-129.166 -43 -206.499 -43 c-133.333 0 -233.166 31.667 -299.499 95s-99.5 164.666 -99.5 303.999v717h168z"/>
<path transform="translate(22959, 16384)rotate(180) scale(-1, 1)" stroke-width="0" fill="#000000" d="M1122 549c0 -178.667 -44.999 -318.168 -134.999 -418.501s-214.333 -150.5 -373 -150.5c-98 0 -185 23 -261 69s-134.667 112 -176 198s-62 186.667 -62 302c0 178.667 44.667 317.834 134 417.501s213.333 149.5 372 149.5c153.333 0 275.166 -51 365.499 -153 s135.5 -240 135.5 -414zM287.001 548.999c0 -140 28 -246.667 84 -320s138.333 -110 247 -110s191.167 36.5 247.5 109.5s84.5 179.833 84.5 320.5c0 139.333 -28.167 245.166 -84.5 317.499s-139.5 108.5 -249.5 108.5c-108.667 0 -190.667 -35.667 -246 -107 s-83 -177.666 -83 -318.999z"/>
<path transform="translate(24196, 16384)rotate(180) scale(-1, 1)" stroke-width="0" fill="#000000" d="M676 1116c48.667 0 92.333 -4 131 -12l-23 -154c-45.333 10 -85.333 15 -120 15c-88.667 0 -164.5 -36 -227.5 -108s-94.5 -161.667 -94.5 -269v-588h-166v1096h137l19 -203h8c40.667 71.333 89.667 126.333 147 165s120.333 58 189 58z"/>
<path transform="translate(25032, 16384)rotate(180) scale(-1, 1)" stroke-width="0" fill="#000000" d="M1122 549c0 -178.667 -44.999 -318.168 -134.999 -418.501s-214.333 -150.5 -373 -150.5c-98 0 -185 23 -261 69s-134.667 112 -176 198s-62 186.667 -62 302c0 178.667 44.667 317.834 134 417.501s213.333 149.5 372 149.5c153.333 0 275.166 -51 365.499 -153 s135.5 -240 135.5 -414zM287.001 548.999c0 -140 28 -246.667 84 -320s138.333 -110 247 -110s191.167 36.5 247.5 109.5s84.5 179.833 84.5 320.5c0 139.333 -28.167 245.166 -84.5 317.499s-139.5 108.5 -249.5 108.5c-108.667 0 -190.667 -35.667 -246 -107 s-83 -177.666 -83 -318.999z"/>
<path transform="translate(26269, 16384)rotate(180) scale(-1, 1)" stroke-width="0" fill="#000000" d="M1573 0l-0.00195312 713c0 87.333 -18.667 152.833 -56 196.5s-95.333 65.5 -174 65.5c-103.333 0 -179.666 -29.667 -228.999 -89s-74 -150.666 -74 -273.999v-612h-166v713c0 87.333 -18.667 152.833 -56 196.5s-95.666 65.5 -174.999 65.5 c-104 0 -180.167 -31.167 -228.5 -93.5s-72.5 -164.5 -72.5 -306.5v-575h-166v1096h135l27 -150h8c31.333 53.333 75.5 95 132.5 125s120.833 45 191.5 45c171.333 0 283.333 -62 336 -186h8c32.667 57.333 80 102.666 142 135.999s132.667 50 212 50 c124 0 216.833 -31.833 278.5 -95.5s92.5 -165.5 92.5 -305.5v-715h-166z"/>
<path transform="translate(28174, 16384)rotate(180) scale(-1, 1)" stroke-width="0" fill="#000000" d="M639 -20c-162 0 -289.833 49.334 -383.5 148.001s-140.5 235.667 -140.5 411c0 176.667 43.5 317 130.5 421s203.833 156 350.5 156c137.333 0 246 -45.167 326 -135.5s120 -209.5 120 -357.5v-105h-755c3.33301 -128.667 35.833 -226.334 97.5 -293.001 s148.5 -100 260.5 -100c118 0 234.667 24.667 350 74v-148c-58.667 -25.333 -114.167 -43.5 -166.5 -54.5s-115.5 -16.5 -189.5 -16.5zM594 977.001c-88 0 -158.167 -28.6689 -210.5 -86.002s-83.166 -136.666 -92.499 -237.999h573c0 104.667 -23.333 184.834 -70 240.501 s-113.334 83.5 -200.001 83.5z"/>
<path transform="translate(29323, 16384)rotate(180) scale(-1, 1)" stroke-width="0" fill="#000000" d="M530 117c29.333 0 57.667 2.16797 85 6.50098s49 8.83301 65 13.5v-127c-18 -8.66699 -44.5 -15.834 -79.5 -21.501s-66.5 -8.5 -94.5 -8.5c-212 0 -318 111.667 -318 335v652h-157v80l157 69l70 234h96v-254h318v-129h-318v-645c0 -66 15.667 -116.667 47 -152 s74.333 -53 129 -53z"/>
<path transform="translate(30046, 16384)rotate(180) scale(-1, 1)" stroke-width="0" fill="#000000" d="M639 -20c-162 0 -289.833 49.334 -383.5 148.001s-140.5 235.667 -140.5 411c0 176.667 43.5 317 130.5 421s203.833 156 350.5 156c137.333 0 246 -45.167 326 -135.5s120 -209.5 120 -357.5v-105h-755c3.33301 -128.667 35.833 -226.334 97.5 -293.001 s148.5 -100 260.5 -100c118 0 234.667 24.667 350 74v-148c-58.667 -25.333 -114.167 -43.5 -166.5 -54.5s-115.5 -16.5 -189.5 -16.5zM594 977.001c-88 0 -158.167 -28.6689 -210.5 -86.002s-83.166 -136.666 -92.499 -237.999h573c0 104.667 -23.333 184.834 -70 240.501 s-113.334 83.5 -200.001 83.5z"/>
<path transform="translate(31195, 16384)rotate(180) scale(-1, 1)" stroke-width="0" fill="#000000" d="M676 1116c48.667 0 92.333 -4 131 -12l-23 -154c-45.333 10 -85.333 15 -120 15c-88.667 0 -164.5 -36 -227.5 -108s-94.5 -161.667 -94.5 -269v-588h-166v1096h137l19 -203h8c40.667 71.333 89.667 126.333 147 165s120.333 58 189 58z"/>
</g></g> 
</g>
<!-- Bottom--> 
<g transform="translate(553.9965185, 199.6655185) " > 
<polygon style="stroke:#000000; fill:none; stroke-width:0.90000074" points="10.62993, 10.62993 31.889789999999998, 10.62993 31.889789999999998, 0 63.779579999999996, 0 63.779579999999996, 10.62993 85.03944, 10.62993 85.03944, 0 106.29929999999999, 0 106.29929999999999, 10.62993 127.55915999999999, 10.62993 127.55915999999999, 0 148.81902, 0 148.81902, 10.62993 170.07888, 10.62993 170.07888, 0 191.33873999999997, 0 191.33873999999997, 10.62993 212.59859999999998, 10.62993 212.59859999999998, 0 233.85845999999998, 0 233.85845999999998, 10.62993 255.11831999999998, 10.62993 255.11831999999998, 0 276.37818, 0 276.37818, 10.62993 297.63804, 10.62993 297.63804, 0 318.8979, 0 318.8979, 10.62993 340.15776, 10.62993 340.15776, 0 361.41762, 0 361.41762, 10.62993 382.67748, 10.62993 382.67748, 0 403.93734, 0 403.93734, 10.62993 425.1972, 10.62993 425.1972, 0 446.45706, 0 446.45706, 10.62993 467.71692, 10.62993 467.71692, 0 499.60671, 0 499.60671, 10.62993 520.86657, 10.62993 520.86657, 31.889789999999998 531.4965, 31.889789999999998 531.4965, 63.779579999999996 520.86657, 63.779579999999996 520.86657, 85.03944 531.4965, 85.03944 531.4965, 106.29929999999999 520.86657, 106.29929999999999 520.86657, 127.55915999999999 531.4965, 127.55915999999999 531.4965, 148.81902 520.86657, 148.81902 520.86657, 170.07888 531.4965, 170.07888 531.4965, 191.33873999999997 520.86657, 191.33873999999997 520.86657, 212.59859999999998 531.4965, 212.59859999999998 531.4965, 233.85845999999998 520.86657, 233.85845999999998 520.86657, 255.11831999999998 531.4965, 255.11831999999998 531.4965, 276.37818 520.86657, 276.37818 520.86657, 297.63804 531.4965, 297.63804 531.4965, 318.8979 520.86657, 318.8979 520.86657, 340.15776 531.4965, 340.15776 531.4965, 361.41762 520.86657, 361.41762 520.86657, 382.67748 531.4965, 382.67748 531.4965, 403.93734 520.86657, 403.93734 520.86657, 425.1972 531.4965, 425.1972 531.4965, 446.45706 520.86657, 446.45706 520.86657, 467.71692 531.4965, 467.71692 531.4965, 499.60671 520.86657, 499.60671 520.86657, 520.86657 499.60671, 520.86657 499.60671, 531.4965 467.71692, 531.4965 467.71692, 520.86657 446.45706, 520.86657 446.45706, 531.4965 425.1972, 531.4965 425.1972, 520.86657 403.93734, 520.86657 403.93734, 531.4965 382.67748, 531.4965 382.67748, 520.86657 361.41762, 520.86657 361.41762, 531.4965 340.15776, 531.4965 340.15776, 520.86657 318.8979, 520.86657 318.8979, 531.4965 297.63804, 531.4965 297.63804, 520.86657 276.37818, 520.86657 276.37818, 531.4965 255.11831999999998, 531.4965 255.11831999999998, 520.86657 233.85845999999998, 520.86657 233.85845999999998, 531.4965 212.59859999999998, 531.4965 212.59859999999998, 520.86657 191.33873999999997, 520.86657 191.33873999999997, 531.4965 170.07888, 531.4965 170.07888, 520.86657 148.81902, 520.86657 148.81902, 531.4965 127.55915999999999, 531.4965 127.55915999999999, 520.86657 106.29929999999999, 520.86657 106.29929999999999, 531.4965 85.03944, 531.4965 85.03944, 520.86657 63.779579999999996, 520.86657 63.779579999999996, 531.4965 31.889789999999998, 531.4965 31.889789999999998, 520.86657 10.62993, 520.86657 10.62993, 499.60671 0, 499.60671 0, 467.71692 10.62993, 467.71692 10.62993, 446.45706 0, 446.45706 0, 425.1972 10.62993, 425.1972 10.62993, 403.93734 0, 403.93734 0, 382.67748 10.62993, 382.67748 10.62993, 361.41762 0, 361.41762 0, 340.15776 10.62993, 340.15776 10.62993, 318.8979 0, 318.8979 0, 297.63804 10.62993, 297.63804 10.62993, 276.37818 0, 276.37818 0, 255.11831999999998 10.62993, 255.11831999999998 10.62993, 233.85845999999998 0, 233.85845999999998 0, 212.59859999999998 10.62993, 212.59859999999998 10.62993, 191.33873999999997 0, 191.33873999999997 0, 170.07888 10.62993, 170.07888 10.62993, 148.81902 0, 148.81902 0, 127.55915999999999 10.62993, 127.55915999999999 10.62993, 106.29929999999999 0, 106.29929999999999 0, 85.03944 10.62993, 85.03944 10.62993, 63.779579999999996 0, 63.779579999999996 0, 31.889789999999998 10.62993, 31.889789999999998 "/> 
</g></svg>