<svg xmlns="http://www.w3.org/2000/svg" version="1.1" width="212.7mm" height="162.7mm" viewBox = " 0 0 753.6620369999999 576.496537" >
<!-- Front--> 
<g transform="translate(22.5000185, 22.5000185) " > 
<polygon style="stroke:#000000; fill:none; stroke-width:0.90000074" points="0, 0 28.34648, 0 28.34648, 10.62993 56.69296, 10.62993 56.69296, 0 77.95282, 0 77.95282, 10.62993 99.21268, 10.62993 99.21268, 0 120.47254, 0 120.47254, 10.62993 148.81902, 10.62993 148.81902, 0 177.1655, 0 177.1655, 28.34648 166.53557, 28.34648 166.53557, 56.69296 177.1655, 56.69296 177.1655, 77.95282 166.53557, 77.95282 166.53557, 99.21268 177.1655, 99.21268 177.1655, 120.47254 166.53557, 120.47254 166.53557, 148.81902 177.1655, 148.81902 177.1655, 177.1655 148.81902, 177.1655 148.81902, 166.53557 120.47254, 166.53557 120.47254, 177.1655 99.21268, 177.1655 99.21268, 166.53557 77.95282, 166.53557 77.95282, 177.1655 56.69296, 177.1655 56.69296, 166.53557 28.34648, 166.53557 28.34648, 177.1655 0, 177.1655 0, 148.81902 10.62993, 148.81902 10.62993, 120.47254 0, 120.47254 0, 99.21268 10.62993, 99.21268 10.62993, 77.95282 0, 77.95282 0, 56.69296 10.62993, 56.69296 10.62993, 28.34648 0, 28.34648 "/> 
</g>
<!-- Back--> 
<g transform="translate(199.6655185, 22.5000185) " > 
<polygon style="stroke:#000000; fill:none; stroke-width:0.90000074" points="0, 0 28.34648, 0 28.34648, 10.62993 56.69296, 10.62993 56.69296, 0 77.95282, 0 77.95282, 10.62993 99.21268, 10.62993 99.21268, 0 120.47254, 0 120.47254, 10.62993 148.81902, 10.62993 148.81902, 0 177.1655, 0 177.1655, 28.34648 166.53557, 28.34648 166.53557, 56.69296 177.1655, 56.69296 177.1655, 77.95282 166.53557, 77.95282 166.53557, 99.21268 177.1655, 99.21268 177.1655, 120.47254 166.53557, 120.47254 166.53557, 148.81902 177.1655, 148.81902 177.1655, 177.1655 148.81902, 177.1655 148.81902, 166.53557 120.47254, 166.53557 120.47254, 177.1655 99.21268, 177.1655 99.21268, 166.53557 77.95282, 166.53557 77.95282, 177.1655 56.69296, 177.1655 56.69296, 166.53557 28.34648, 166.53557 28.34648, 177.1655 0, 177.1655 0, 148.81902 10.62993, 148.81902 10.62993, 120.47254 0, 120.47254 0, 99.21268 10.62993, 99.21268 10.62993, 77.95282 0, 77.95282 0, 56.69296 10.62993, 56.69296 10.62993, 28.34648 0, 28.34648 "/> 
</g>
<!-- Left--> 
<g transform="translate(376.83101849999997, 22.5000185) " > 
<polygon style="stroke:#000000; fill:none; stroke-width:0.90000074" points="10.62993, 0 30.118135, 0 30.118135, 10.62993 60.23627, 10.62993 60.23627, 0 81.49613, 0 81.49613, 10.62993 102.75599, 10.62993 102.75599, 0 124.01585, 0 124.01585, 10.62993 145.27571, 10.62993 145.27571, 0 166.53557, 0 166.53557, 10.62993 187.79542999999998, 10.62993 187.79542999999998, 0 209.05528999999999, 0 209.05528999999999, 10.62993 230.31515, 10.62993 230.31515, 0 251.57501, 0 251.57501, 10.62993 272.83487, 10.62993 272.83487, 0 294.09473, 0 294.09473, 10.62993 324.212865, 10.62993 324.212865, 0 343.70107, 0 343.70107, 28.34648 354.331, 28.34648 354.331, 56.69296 343.70107, 56.69296 343.70107, 77.95282 354.331, 77.95282 354.331, 99.21268 343.70107, 99.21268 343.70107, 120.47254 354.331, 120.47254 354.331, 148.81902 343.70107, 148.81902 343.70107, 177.1655 324.212865, 177.1655 324.212865, 166.53557 294.09473, 166.53557 294.09473, 177.1655 272.83487, 177.1655 272.83487, 166.53557 251.57501, 166.53557 251.57501, 177.1655 230.31515, 177.1655 230.31515, 166.53557 209.05528999999999, 166.53557 209.05528999999999, 177.1655 187.79542999999998, 177.1655 187.79542999999998, 166.53557 166.53557, 166.53557 166.53557, 177.1655 145.27571, 177.1655 145.27571, 166.53557 124.01585, 166.53557 124.01585, 177.1655 102.75599, 177.1655 102.75599, 166.53557 81.49613, 166.53557 81.49613, 177.1655 60.23627, 177.1655 60.23627, 166.53557 30.118135, 166.53557 30.118135, 177.1655 10.62993, 177.1655 10.62993, 148.81902 0, 148.81902 0, 120.47254 10.62993, 120.47254 10.62993, 99.21268 0, 99.21268 0, 77.95282 10.62993, 77.95282 10.62993, 56.69296 0, 56.69296 0, 28.34648 10.62993, 28.34648 "/> 
</g>
<!-- Right--> 
<g transform="translate(376.83101849999997, 199.6655185) " > 
<polygon style="stroke:#000000; fill:none; stroke-width:0.90000074" points="10.62993, 0 30.118135, 0 30.118135, 10.62993 60.23627, 10.62993 60.23627, 0 81.49613, 0 81.49613, 10.62993 102.75599, 10.62993 102.75599, 0 124.01585, 0 124.01585, 10.62993 145.27571, 10.62993 145.27571, 0 166.53557, 0 166.53557, 10.62993 187.79542999999998, 10.62993 187.79542999999998, 0 209.05528999999999, 0 209.05528999999999, 10.62993 230.31515, 10.62993 230.31515, 0 251.57501, 0 251.57501, 10.62993 272.83487, 10.62993 272.83487, 0 294.09473, 0 294.09473, 10.62993 324.212865, 10.62993 324.212865, 0 343.70107, 0 343.70107, 28.34648 354.331, 28.34648 354.331, 56.69296 343.70107, 56.69296 343.70107, 77.95282 354.331, 77.95282 354.331, 99.21268 343.70107, 99.21268 343.70107, 120.47254 354.331, 120.47254 354.331, 148.81902 343.70107, 148.81902 343.70107, 177.1655 324.212865, 177.1655 324.212865, 166.53557 294.09473, 166.53557 294.09473, 177.1655 272.83487, 177.1655 272.83487, 166.53557 251.57501, 166.53557 251.57501, 177.1655 230.31515, 177.1655 230.31515, 166.53557 209.05528999999999, 166.53557 209.05528999999999, 177.1655 187.79542999999998, 177.1655 187.79542999999998, 166.53557 166.53557, 166.53557 166.53557, 177.1655 145.27571, 177.1655 145.27571, 166.53557 124.01585, 166.53557 124.01585, 177.1655 102.75599, 177.1655 102.75599, 166.53557 81.49613, 166.53557 81.49613, 177.1655 60.23627, 177.1655 60.23627, 166.53557 30.118135, 166.53557 30.118135, 177.1655 10.62993, 177.1655 10.62993, 148.81902 0, 148.81902 0, 120.47254 10.62993, 120.47254 10.62993, 99.21268 0, 99.21268 0, 77.95282 10.62993, 77.95282 10.62993, 56.69296 0, 56.69296 0, 28.34648 10.62993, 28.34648 "/> 
</g>
<!-- Top--> 
<g transform="translate(22.5000185, 199.6655185) " > 
<polygon style="stroke:#000000; fill:none; stroke-width:0.90000074" points="10.62993, 10.62993 28.34648, 10.62993 28.34648, 0 56.69296, 0 56.69296, 10.62993 77.95282, 10.62993 77.95282, 0 99.21268, 0 99.21268, 10.62993 120.47254, 10.62993 120.47254, 0 148.81902, 0 148.81902, 10.62993 166.53557, 10.62993 166.53557, 30.118135 177.1655, 30.118135 177.1655, 60.23627 166.53557, 60.23627 166.53557, 81.49613 177.1655, 81.49613 177.1655, 102.75599 166.53557, 102.75599 166.53557, 124.01585 177.1655, 124.01585 177.1655, 145.27571 166.53557, 145.27571 166.53557, 166.53557 177.1655, 166.53557 177.1655, 187.79542999999998 166.53557, 187.79542999999998 166.53557, 209.05528999999999 177.1655, 209.05528999999999 177.1655, 230.31515 166.53557, 230.31515 166.53557, 251.57501 177.1655, 251.57501 177.1655, 272.83487 166.53557, 272.83487 166.53557, 294.09473 177.1655, 294.09473 177.1655, 324.212865 166.53557, 324.212865 166.53557, 343.70107 148.81902, 343.70107 148.81902, 354.331 120.47254, 354.331 120.47254, 343.70107 99.21268, 343.70107 99.21268, 354.331 77.95282, 354.331 77.95282, 343.70107 56.69296, 343.70107 56.69296, 354.331 28.34648, 354.331 28.34648, 343.70107 10.62993, 343.70107 10.62993, 324.212865 0, 324.212865 0, 294.09473 10.62993, 294.09473 10.62993, 272.83487 0, 272.83487 0, 251.57501 10.62993, 251.57501 10.62993, 230.31515 0, 230.31515 0, 209.05528999999999 10.62993, 209.05528999999999 10.62993, 187.79542999999998 0, 187.79542999999998 0, 166.53557 10.62993, 166.53557 10.62993, 145.27571 0, 145.27571 0, 124.01585 10.62993, 124.01585 10.62993, 102.75599 0, 102.75599 0, 81.49613 10.62993, 81.49613 10.62993, 60.23627 0, 60.23627 0, 30.118135 10.62993, 30.118135 "/> 
</g>
<!-- Bottom--> 
<g transform="translate(199.6655185, 199.6655185) " > 
<polygon style="stroke:#000000; fill:none; stroke-width:0.90000074" points="10.62993, 10.62993 28.34648, 10.62993 28.34648, 0 56.69296, 0 56.69296, 10.62993 77.95282, 10.62993 77.95282, 0 99.21268, 0 99.21268, 10.62993 120.47254, 10.62993 120.47254, 0 148.81902, 0 148.81902, 10.62993 166.53557, 10.62993 166.53557, 30.118135 177.1655, 30.118135 177.1655, 60.23627 166.53557, 60.23627 166.53557, 81.49613 177.1655, 81.49613 177.1655, 102.75599 166.53557, 102.75599 166.53557, 124.01585 177.1655, 124.01585 177.1655, 145.27571 166.53557, 145.27571 166.53557, 166.53557 177.1655, 166.53557 177.1655, 187.79542999999998 166.53557, 187.79542999999998 166.53557, 209.05528999999999 177.1655, 209.05528999999999 177.1655, 230.31515 166.53557, 230.31515 166.53557, 251.57501 177.1655, 251.57501 177.1655, 272.83487 166.53557, 272.83487 166.53557, 294.09473 177.1655, 294.09473 177.1655, 324.212865 166.53557, 324.212865 166.53557, 343.70107 148.81902, 343.70107 148.81902, 354.331 120.47254, 354.331 120.47254, 343.70107 99.21268, 343.70107 99.21268, 354.331 77.95282, 354.331 77.95282, 343.70107 56.69296, 343.70107 56.69296, 354.331 28.34648, 354.331 28.34648, 343.70107 10.62993, 343.70107 10.62993, 324.212865 0, 324.212865 0, 294.09473 10.62993, 294.09473 10.62993, 272.83487 0, 272.83487 0, 251.57501 10.62993, 251.57501 10.62993, 230.31515 0, 230.31515 0, 209.05528999999999 10.62993, 209.05528999999999 10.62993, 187.79542999999998 0, 187.79542999999998 0, 166.53557 10.62993, 166.53557 10.62993, 145.27571 0, 145.27571 0, 124.01585 10.62993, 124.01585 10.62993, 102.75599 0, 102.75599 0, 81.49613 10.62993, 81.49613 10.62993, 60.23627 0, 60.23627 0, 30.118135 10.62993, 30.118135 "/> 
</g></svg>