<svg xmlns="http://www.w3.org/2000/svg" version="1.1" width="244.7mm" height="200.7mm" viewBox = " 0 0 867.047957 711.1423169999999" >
<!-- Front--> 
<g transform="translate(22.5000185, 22.5000185) " > 
<polygon style="stroke:#000000; fill:none; stroke-width:0.90000074" points="0, 0 35.433099999999996, 0 35.433099999999996, 10.62993 70.86619999999999, 10.62993 70.86619999999999, 0 92.12606, 0 92.12606, 10.62993 113.38592, 10.62993 113.38592, 0 134.64578, 0 134.64578, 10.62993 155.90564, 10.62993 155.90564, 0 177.1655, 0 177.1655, 10.62993 198.42535999999998, 10.62993 198.42535999999998, 0 219.68522, 0 219.68522, 10.62993 240.94508, 10.62993 240.94508, 0 262.20493999999997, 0 262.20493999999997, 10.62993 297.63804, 10.62993 297.63804, 0 333.07114, 0 333.07114, 35.433099999999996 322.44121, 35.433099999999996 322.44121, 70.86619999999999 333.07114, 70.86619999999999 333.07114, 92.12606 322.44121, 92.12606 322.44121, 113.38592 333.07114, 113.38592 333.07114, 134.64578 322.44121, 134.64578 322.44121, 155.90564 333.07114, 155.90564 333.07114, 177.1655 322.44121, 177.1655 322.44121, 198.42535999999998 333.07114, 198.42535999999998 333.07114, 219.68522 322.44121, 219.68522 322.44121, 240.94508 333.07114, 240.94508 333.07114, 262.20493999999997 322.44121, 262.20493999999997 322.44121, 297.63804 333.07114, 297.63804 333.07114, 333.07114 297.63804, 333.07114 297.63804, 322.44121 262.20493999999997, 322.44121 262.20493999999997, 333.07114 240.94508, 333.07114 240.94508, 322.44121 219.68522, 322.44121 219.68522, 333.07114 198.42535999999998, 333.07114 198.42535999999998, 322.44121 177.1655, 322.44121 177.1655, 333.07114 155.90564, 333.07114 155.90564, 322.44121 134.64578, 322.44121 134.64578, 333.07114 113.38592, 333.07114 113.38592, 322.44121 92.12606, 322.44121 92.12606, 333.07114 70.86619999999999, 333.07114 70.86619999999999, 322.44121 35.433099999999996, 322.44121 35.433099999999996, 333.07114 0, 333.07114 0, 297.63804 10.62993, 297.63804 10.62993, 262.20493999999997 0, 262.20493999999997 0, 240.94508 10.62993, 240.94508 10.62993, 219.68522 0, 219.68522 0, 198.42535999999998 10.62993, 198.42535999999998 10.62993, 177.1655 0, 177.1655 0, 155.90564 10.62993, 155.90564 10.62993, 134.64578 0, 134.64578 0, 113.38592 10.62993, 113.38592 10.62993, 92.12606 0, 92.12606 0, 70.86619999999999 10.62993, 70.86619999999999 10.62993, 35.433099999999996 0, 35.433099999999996 "/> 
</g>
<!-- Back--> 
<g transform="translate(355.57115849999997, 22.5000185) " > 
<polygon style="stroke:#000000; fill:none; stroke-width:0.90000074" points="0, 0 35.433099999999996, 0 35.433099999999996, 10.62993 70.86619999999999, 10.62993 70.86619999999999, 0 92.12606, 0 92.12606, 10.62993 113.38592, 10.62993 113.38592, 0 134.64578, 0 134.64578, 10.62993 155.90564, 10.62993 155.90564, 0 177.1655, 0 177.1655, 10.62993 198.42535999999998, 10.62993 198.42535999999998, 0 219.68522, 0 219.68522, 10.62993 240.94508, 10.62993 240.94508, 0 262.20493999999997, 0 262.20493999999997, 10.62993 297.63804, 10.62993 297.63804, 0 333.07114, 0 333.07114, 35.433099999999996 322.44121, 35.433099999999996 322.44121, 70.86619999999999 333.07114, 70.86619999999999 333.07114, 92.12606 322.44121, 92.12606 322.44121, 113.38592 333.07114, 113.38592 333.07114, 134.64578 322.44121, 134.64578 322.44121, 155.90564 333.07114, 155.90564 333.07114, 177.1655 322.44121, 177.1655 322.44121, 198.42535999999998 333.07114, 198.42535999999998 333.07114, 219.68522 322.44121, 219.68522 322.44121, 240.94508 333.07114, 240.94508 333.07114, 262.20493999999997 322.44121, 262.20493999999997 322.44121, 297.63804 333.07114, 297.63804 333.07114, 333.07114 297.63804, 333.07114 297.63804, 322.44121 262.20493999999997, 322.44121 262.20493999999997, 333.07114 240.94508, 333.07114 240.94508, 322.44121 219.68522, 322.44121 219.68522, 333.07114 198.42535999999998, 333.07114 198.42535999999998, 322.44121 177.1655, 322.44121 177.1655, 333.07114 155.90564, 333.07114 155.90564, 322.44121 134.64578, 322.44121 134.64578, 333.07114 113.38592, 333.07114 113.38592, 322.44121 92.12606, 322.44121 92.12606, 333.07114 70.86619999999999, 333.07114 70.86619999999999, 322.44121 35.433099999999996, 322.44121 35.433099999999996, 333.07114 0, 333.07114 0, 297.63804 10.62993, 297.63804 10.62993, 262.20493999999997 0, 262.20493999999997 0, 240.94508 10.62993, 240.94508 10.62993, 219.68522 0, 219.68522 0, 198.42535999999998 10.62993, 198.42535999999998 10.62993, 177.1655 0, 177.1655 0, 155.90564 10.62993, 155.90564 10.62993, 134.64578 0, 134.64578 0, 113.38592 10.62993, 113.38592 10.62993, 92.12606 0, 92.12606 0, 70.86619999999999 10.62993, 70.86619999999999 10.62993, 35.433099999999996 0, 35.433099999999996 "/> 
</g>
<!-- Left--> 
<g transform="translate(688.6422984999999, 22.5000185) " > 
<polygon style="stroke:#000000; fill:none; stroke-width:0.90000074" points="10.62993, 0 33.661445, 0 33.661445, 10.62993 67.32289, 10.62993 67.32289, 0 88.58275, 0 88.58275, 10.62993 122.244195, 10.62993 122.244195, 0 145.27571, 0 145.27571, 35.433099999999996 155.90564, 35.433099999999996 155.90564, 70.86619999999999 145.27571, 70.86619999999999 145.27571, 92.12606 155.90564, 92.12606 155.90564, 113.38592 145.27571, 113.38592 145.27571, 134.64578 155.90564, 134.64578 155.90564, 155.90564 145.27571, 155.90564 145.27571, 177.1655 155.90564, 177.1655 155.90564, 198.42535999999998 145.27571, 198.42535999999998 145.27571, 219.68522 155.90564, 219.68522 155.90564, 240.94508 145.27571, 240.94508 145.27571, 262.20493999999997 155.90564, 262.20493999999997 155.90564, 297.63804 145.27571, 297.63804 145.27571, 333.07114 122.244195, 333.07114 122.244195, 322.44121 88.58275, 322.44121 88.58275, 333.07114 67.32289, 333.07114 67.32289, 322.44121 33.661445, 322.44121 33.661445, 333.07114 10.62993, 333.07114 10.62993, 297.63804 0, 297.63804 0, 262.20493999999997 10.62993, 262.20493999999997 10.62993, 240.94508 0, 240.94508 0, 219.68522 10.62993, 219.68522 10.62993, 198.42535999999998 0, 198.42535999999998 0, 177.1655 10.62993, 177.1655 10.62993, 155.90564 0, 155.90564 0, 134.64578 10.62993, 134.64578 10.62993, 113.38592 0, 113.38592 0, 92.12606 10.62993, 92.12606 10.62993, 70.86619999999999 0, 70.86619999999999 0, 35.433099999999996 10.62993, 35.433099999999996 "/> 
</g>
<!-- Right--> 
<g transform="translate(688.6422984999999, 355.57115849999997) " > 
<polygon style="stroke:#000000; fill:none; stroke-width:0.90000074" points="10.62993, 0 33.661445, 0 33.661445, 10.62993 67.32289, 10.62993 67.32289, 0 88.58275, 0 88.58275, 10.62993 122.244195, 10.62993 122.244195, 0 145.27571, 0 145.27571, 35.433099999999996 155.90564, 35.433099999999996 155.90564, 70.86619999999999 145.27571, 70.86619999999999 145.27571, 92.12606 155.90564, 92.12606 155.90564, 113.38592 145.27571, 113.38592 145.27571, 134.64578 155.90564, 134.64578 155.90564, 155.90564 145.27571, 155.90564 145.27571, 177.1655 155.90564, 177.1655 155.90564, 198.42535999999998 145.27571, 198.42535999999998 145.27571, 219.68522 155.90564, 219.68522 155.90564, 240.94508 145.27571, 240.94508 145.27571, 262.20493999999997 155.90564, 262.20493999999997 155.90564, 297.63804 145.27571, 297.63804 145.27571, 333.07114 122.244195, 333.07114 122.244195, 322.44121 88.58275, 322.44121 88.58275, 333.07114 67.32289, 333.07114 67.32289, 322.44121 33.661445, 322.44121 33.661445, 333.07114 10.62993, 333.07114 10.62993, 297.63804 0, 297.63804 0, 262.20493999999997 10.62993, 262.20493999999997 10.62993, 240.94508 0, 240.94508 0, 219.68522 10.62993, 219.68522 10.62993, 198.42535999999998 0, 198.42535999999998 0, 177.1655 10.62993, 177.1655 10.62993, 155.90564 0, 155.90564 0, 134.64578 10.62993, 134.64578 10.62993, 113.38592 0, 113.38592 0, 92.12606 10.62993, 92.12606 10.62993, 70.86619999999999 0, 70.86619999999999 0, 35.433099999999996 10.62993, 35.433099999999996 "/> 
</g>
<!-- Top--> 
<g transform="translate(22.5000185, 355.57115849999997) " > 
<polygon style="stroke:#000000; fill:none; stroke-width:0.90000074" points="10.62993, 10.62993 35.433099999999996, 10.62993 35.433099999999996, 0 70.86619999999999, 0 70.86619999999999, 10.62993 92.12606, 10.62993 92.12606, 0 113.38592, 0 113.38592, 10.62993 134.64578, 10.62993 134.64578, 0 155.90564, 0 155.90564, 10.62993 177.1655, 10.62993 177.1655, 0 198.42535999999998, 0 198.42535999999998, 10.62993 219.68522, 10.62993 219.68522, 0 240.94508, 0 240.94508, 10.62993 262.20493999999997, 10.62993 262.20493999999997, 0 297.63804, 0 297.63804, 10.62993 322.44121, 10.62993 322.44121, 33.661445 333.07114, 33.661445 333.07114, 67.32289 322.44121, 67.32289 322.44121, 88.58275 333.07114, 88.58275 333.07114, 122.244195 322.44121, 122.244195 322.44121, 145.27571 297.63804, 145.27571 297.63804, 155.90564 262.20493999999997, 155.90564 262.20493999999997, 145.27571 240.94508, 145.27571 240.94508, 155.90564 219.68522, 155.90564 219.68522, 145.27571 198.42535999999998, 145.27571 198.42535999999998, 155.90564 177.1655, 155.90564 177.1655, 145.27571 155.90564, 145.27571 155.90564, 155.90564 134.64578, 155.90564 134.64578, 145.27571 113.38592, 145.27571 113.38592, 155.90564 92.12606, 155.90564 92.12606, 145.27571 70.86619999999999, 145.27571 70.86619999999999, 155.90564 35.433099999999996, 155.90564 35.433099999999996, 145.27571 10.62993, 145.27571 10.62993, 122.244195 0, 122.244195 0, 88.58275 10.62993, 88.58275 10.62993, 67.32289 0, 67.32289 0, 33.661445 10.62993, 33.661445 "/> 
</g>
<!-- Bottom--> 
<g transform="translate(355.57115849999997, 355.57115849999997) " > 
<polygon style="stroke:#000000; fill:none; stroke-width:0.90000074" points="10.62993, 10.62993 35.433099999999996, 10.62993 35.433099999999996, 0 70.86619999999999, 0 70.86619999999999, 10.62993 92.12606, 10.62993 92.12606, 0 113.38592, 0 113.38592, 10.62993 134.64578, 10.62993 134.64578, 0 155.90564, 0 155.90564, 10.62993 177.1655, 10.62993 177.1655, 0 198.42535999999998, 0 198.42535999999998, 10.62993 219.68522, 10.62993 219.68522, 0 240.94508, 0 240.94508, 10.62993 262.20493999999997, 10.62993 262.20493999999997, 0 297.63804, 0 297.63804, 10.62993 322.44121, 10.62993 322.44121, 33.661445 333.07114, 33.661445 333.07114, 67.32289 322.44121, 67.32289 322.44121, 88.58275 333.07114, 88.58275 333.07114, 122.244195 322.44121, 122.244195 322.44121, 145.27571 297.63804, 145.27571 297.63804, 155.90564 262.20493999999997, 155.90564 262.20493999999997, 145.27571 240.94508, 145.27571 240.94508, 155.90564 219.68522, 155.90564 219.68522, 145.27571 198.42535999999998, 145.27571 198.42535999999998, 155.90564 177.1655, 155.90564 177.1655, 145.27571 155.90564, 145.27571 155.90564, 155.90564 134.64578, 155.90564 134.64578, 145.27571 113.38592, 145.27571 113.38592, 155.90564 92.12606, 155.90564 92.12606, 145.27571 70.86619999999999, 145.27571 70.86619999999999, 155.90564 35.433099999999996, 155.90564 35.433099999999996, 145.27571 10.62993, 145.27571 10.62993, 122.244195 0, 122.244195 0, 88.58275 10.62993, 88.58275 10.62993, 67.32289 0, 67.32289 0, 33.661445 10.62993, 33.661445 "/> 
</g></svg>