<?xml version="1.0" encoding="UTF-8" standalone="no"?>
<svg
   xmlns:dc="http://purl.org/dc/elements/1.1/"
   xmlns:cc="http://creativecommons.org/ns#"
   xmlns:rdf="http://www.w3.org/1999/02/22-rdf-syntax-ns#"
   xmlns:svg="http://www.w3.org/2000/svg"
   xmlns="http://www.w3.org/2000/svg"
   xmlns:sodipodi="http://sodipodi.sourceforge.net/DTD/sodipodi-0.dtd"
   xmlns:inkscape="http://www.inkscape.org/namespaces/inkscape"
   version="1.1"
   width="462.7mm"
   height="212.7mm"
   viewBox=" 0 0 1639.489537 753.6620369999999"
   id="svg3527"
   inkscape:version="0.91 r13725"
   sodipodi:docname="caseplans.svg">
  <metadata
     id="metadata3611">
    <rdf:RDF>
      <cc:Work
         rdf:about="">
        <dc:format>image/svg+xml</dc:format>
        <dc:type
           rdf:resource="http://purl.org/dc/dcmitype/StillImage" />
      </cc:Work>
    </rdf:RDF>
  </metadata>
  <defs
     id="defs3609" />
  <sodipodi:namedview
     pagecolor="#ffffff"
     bordercolor="#666666"
     borderopacity="1"
     objecttolerance="10"
     gridtolerance="10"
     guidetolerance="10"
     inkscape:pageopacity="0"
     inkscape:pageshadow="2"
     inkscape:window-width="2495"
     inkscape:window-height="1416"
     id="namedview3607"
     showgrid="false"
     inkscape:zoom="1.4205652"
     inkscape:cx="735.2707"
     inkscape:cy="320.51509"
     inkscape:window-x="65"
     inkscape:window-y="24"
     inkscape:window-maximized="1"
     inkscape:current-layer="svg3527" />
  <!-- Front-->
  <g
     transform="translate(10.500006,12.500009)"
     id="g3529">
    <polygon
       style="fill:none;stroke:#000000;stroke-width:0.90000075"
       points="148.81902,10.62993 148.81902,0 170.07888,0 170.07888,10.62993 191.33874,10.62993 191.33874,0 212.5986,0 212.5986,10.62993 233.85846,10.62993 233.85846,0 255.11832,0 255.11832,10.62993 276.37818,10.62993 276.37818,0 297.63804,0 297.63804,10.62993 318.8979,10.62993 318.8979,0 340.15776,0 340.15776,10.62993 361.41762,10.62993 361.41762,0 382.67748,0 382.67748,10.62993 403.93734,10.62993 403.93734,0 425.1972,0 425.1972,10.62993 446.45706,10.62993 446.45706,0 467.71692,0 467.71692,10.62993 499.60671,10.62993 499.60671,0 531.4965,0 531.4965,28.34648 520.86657,28.34648 520.86657,56.69296 531.4965,56.69296 531.4965,77.95282 520.86657,77.95282 520.86657,99.21268 531.4965,99.21268 531.4965,120.47254 520.86657,120.47254 520.86657,148.81902 531.4965,148.81902 531.4965,177.1655 499.60671,177.1655 499.60671,166.53557 467.71692,166.53557 467.71692,177.1655 446.45706,177.1655 446.45706,166.53557 425.1972,166.53557 425.1972,177.1655 403.93734,177.1655 403.93734,166.53557 382.67748,166.53557 382.67748,177.1655 361.41762,177.1655 361.41762,166.53557 340.15776,166.53557 340.15776,177.1655 318.8979,177.1655 318.8979,166.53557 297.63804,166.53557 297.63804,177.1655 276.37818,177.1655 276.37818,166.53557 255.11832,166.53557 255.11832,177.1655 233.85846,177.1655 233.85846,166.53557 212.5986,166.53557 212.5986,177.1655 191.33874,177.1655 191.33874,166.53557 170.07888,166.53557 170.07888,177.1655 148.81902,177.1655 148.81902,166.53557 127.55916,166.53557 127.55916,177.1655 106.2993,177.1655 106.2993,166.53557 85.03944,166.53557 85.03944,177.1655 63.77958,177.1655 63.77958,166.53557 31.88979,166.53557 31.88979,177.1655 0,177.1655 0,148.81902 10.62993,148.81902 10.62993,120.47254 0,120.47254 0,99.21268 10.62993,99.21268 10.62993,77.95282 0,77.95282 0,56.69296 10.62993,56.69296 10.62993,28.34648 0,28.34648 0,0 31.88979,0 31.88979,10.62993 63.77958,10.62993 63.77958,0 85.03944,0 85.03944,10.62993 106.2993,10.62993 106.2993,0 127.55916,0 127.55916,10.62993 "
       id="polygon3531" />
  </g>
  <!-- Back-->
  <g
     transform="translate(553.99652,12.500009)"
     id="g3533">
    <polygon
       style="fill:none;stroke:#000000;stroke-width:0.90000075"
       points="212.5986,0 212.5986,10.62993 233.85846,10.62993 233.85846,0 255.11832,0 255.11832,10.62993 276.37818,10.62993 276.37818,0 297.63804,0 297.63804,10.62993 318.8979,10.62993 318.8979,0 340.15776,0 340.15776,10.62993 361.41762,10.62993 361.41762,0 382.67748,0 382.67748,10.62993 403.93734,10.62993 403.93734,0 425.1972,0 425.1972,10.62993 446.45706,10.62993 446.45706,0 467.71692,0 467.71692,10.62993 499.60671,10.62993 499.60671,0 531.4965,0 531.4965,28.34648 520.86657,28.34648 520.86657,56.69296 531.4965,56.69296 531.4965,77.95282 520.86657,77.95282 520.86657,99.21268 531.4965,99.21268 531.4965,120.47254 520.86657,120.47254 520.86657,148.81902 531.4965,148.81902 531.4965,177.1655 499.60671,177.1655 499.60671,166.53557 467.71692,166.53557 467.71692,177.1655 446.45706,177.1655 446.45706,166.53557 425.1972,166.53557 425.1972,177.1655 403.93734,177.1655 403.93734,166.53557 382.67748,166.53557 382.67748,177.1655 361.41762,177.1655 361.41762,166.53557 340.15776,166.53557 340.15776,177.1655 318.8979,177.1655 318.8979,166.53557 297.63804,166.53557 297.63804,177.1655 276.37818,177.1655 276.37818,166.53557 255.11832,166.53557 255.11832,177.1655 233.85846,177.1655 233.85846,166.53557 212.5986,166.53557 212.5986,177.1655 191.33874,177.1655 191.33874,166.53557 170.07888,166.53557 170.07888,177.1655 148.81902,177.1655 148.81902,166.53557 127.55916,166.53557 127.55916,177.1655 106.2993,177.1655 106.2993,166.53557 85.03944,166.53557 85.03944,177.1655 63.77958,177.1655 63.77958,166.53557 31.88979,166.53557 31.88979,177.1655 0,177.1655 0,148.81902 10.62993,148.81902 10.62993,120.47254 0,120.47254 0,99.21268 10.62993,99.21268 10.62993,77.95282 0,77.95282 0,56.69296 10.62993,56.69296 10.62993,28.34648 0,28.34648 0,0 31.88979,0 31.88979,10.62993 63.77958,10.62993 63.77958,0 85.03944,0 85.03944,10.62993 106.2993,10.62993 106.2993,0 127.55916,0 127.55916,10.62993 148.81902,10.62993 148.81902,0 170.07888,0 170.07888,10.62993 191.33874,10.62993 191.33874,0 "
       id="polygon3535" />
  </g>
  <!-- Left-->
  <g
     transform="translate(1097.493,12.500009)"
     id="g3537">
    <polygon
       style="fill:none;stroke:#000000;stroke-width:0.90000075"
       points="276.37818,10.62993 276.37818,0 297.63804,0 297.63804,10.62993 318.8979,10.62993 318.8979,0 340.15776,0 340.15776,10.62993 361.41762,10.62993 361.41762,0 382.67748,0 382.67748,10.62993 403.93734,10.62993 403.93734,0 425.1972,0 425.1972,10.62993 446.45706,10.62993 446.45706,0 467.71692,0 467.71692,10.62993 499.60671,10.62993 499.60671,0 520.86657,0 520.86657,28.34648 531.4965,28.34648 531.4965,56.69296 520.86657,56.69296 520.86657,77.95282 531.4965,77.95282 531.4965,99.21268 520.86657,99.21268 520.86657,120.47254 531.4965,120.47254 531.4965,148.81902 520.86657,148.81902 520.86657,177.1655 499.60671,177.1655 499.60671,166.53557 467.71692,166.53557 467.71692,177.1655 446.45706,177.1655 446.45706,166.53557 425.1972,166.53557 425.1972,177.1655 403.93734,177.1655 403.93734,166.53557 382.67748,166.53557 382.67748,177.1655 361.41762,177.1655 361.41762,166.53557 340.15776,166.53557 340.15776,177.1655 318.8979,177.1655 318.8979,166.53557 297.63804,166.53557 297.63804,177.1655 276.37818,177.1655 276.37818,166.53557 255.11832,166.53557 255.11832,177.1655 233.85846,177.1655 233.85846,166.53557 212.5986,166.53557 212.5986,177.1655 191.33874,177.1655 191.33874,166.53557 170.07888,166.53557 170.07888,177.1655 148.81902,177.1655 148.81902,166.53557 127.55916,166.53557 127.55916,177.1655 106.2993,177.1655 106.2993,166.53557 85.03944,166.53557 85.03944,177.1655 63.77958,177.1655 63.77958,166.53557 31.88979,166.53557 31.88979,177.1655 10.62993,177.1655 10.62993,148.81902 0,148.81902 0,120.47254 10.62993,120.47254 10.62993,99.21268 0,99.21268 0,77.95282 10.62993,77.95282 10.62993,56.69296 0,56.69296 0,28.34648 10.62993,28.34648 10.62993,0 31.88979,0 31.88979,10.62993 63.77958,10.62993 63.77958,0 85.03944,0 85.03944,10.62993 106.2993,10.62993 106.2993,0 127.55916,0 127.55916,10.62993 148.81902,10.62993 148.81902,0 170.07888,0 170.07888,10.62993 191.33874,10.62993 191.33874,0 212.5986,0 212.5986,10.62993 233.85846,10.62993 233.85846,0 255.11832,0 255.11832,10.62993 "
       id="polygon3539" />
  </g>
  <!-- Right-->
  <g
     transform="translate(1097.493,199.66552)"
     id="g3541">
    <polygon
       style="fill:none;stroke:#000000;stroke-width:0.90000075"
       points="212.5986,10.62993 233.85846,10.62993 233.85846,0 255.11832,0 255.11832,10.62993 276.37818,10.62993 276.37818,0 297.63804,0 297.63804,10.62993 318.8979,10.62993 318.8979,0 340.15776,0 340.15776,10.62993 361.41762,10.62993 361.41762,0 382.67748,0 382.67748,10.62993 403.93734,10.62993 403.93734,0 425.1972,0 425.1972,10.62993 446.45706,10.62993 446.45706,0 467.71692,0 467.71692,10.62993 499.60671,10.62993 499.60671,0 520.86657,0 520.86657,28.34648 531.4965,28.34648 531.4965,56.69296 520.86657,56.69296 520.86657,77.95282 531.4965,77.95282 531.4965,99.21268 520.86657,99.21268 520.86657,120.47254 531.4965,120.47254 531.4965,148.81902 520.86657,148.81902 520.86657,177.1655 499.60671,177.1655 499.60671,166.53557 467.71692,166.53557 467.71692,177.1655 446.45706,177.1655 446.45706,166.53557 425.1972,166.53557 425.1972,177.1655 403.93734,177.1655 403.93734,166.53557 382.67748,166.53557 382.67748,177.1655 361.41762,177.1655 361.41762,166.53557 340.15776,166.53557 340.15776,177.1655 318.8979,177.1655 318.8979,166.53557 297.63804,166.53557 297.63804,177.1655 276.37818,177.1655 276.37818,166.53557 255.11832,166.53557 255.11832,177.1655 233.85846,177.1655 233.85846,166.53557 212.5986,166.53557 212.5986,177.1655 191.33874,177.1655 191.33874,166.53557 170.07888,166.53557 170.07888,177.1655 148.81902,177.1655 148.81902,166.53557 127.55916,166.53557 127.55916,177.1655 106.2993,177.1655 106.2993,166.53557 85.03944,166.53557 85.03944,177.1655 63.77958,177.1655 63.77958,166.53557 31.88979,166.53557 31.88979,177.1655 10.62993,177.1655 10.62993,148.81902 0,148.81902 0,120.47254 10.62993,120.47254 10.62993,99.21268 0,99.21268 0,77.95282 10.62993,77.95282 10.62993,56.69296 0,56.69296 0,28.34648 10.62993,28.34648 10.62993,0 31.88979,0 31.88979,10.62993 63.77958,10.62993 63.77958,0 85.03944,0 85.03944,10.62993 106.2993,10.62993 106.2993,0 127.55916,0 127.55916,10.62993 148.81902,10.62993 148.81902,0 170.07888,0 170.07888,10.62993 191.33874,10.62993 191.33874,0 212.5986,0 "
       id="polygon3543" />
  </g>
  <!-- Top-->
  <g
     transform="translate(10.500007,199.66552)"
     id="g3545">
    <polygon
       style="fill:none;stroke:#000000;stroke-width:0.90000075"
       points="85.03944,0 106.2993,0 106.2993,10.62993 127.55916,10.62993 127.55916,0 148.81902,0 148.81902,10.62993 170.07888,10.62993 170.07888,0 191.33874,0 191.33874,10.62993 212.5986,10.62993 212.5986,0 233.85846,0 233.85846,10.62993 255.11832,10.62993 255.11832,0 276.37818,0 276.37818,10.62993 297.63804,10.62993 297.63804,0 318.8979,0 318.8979,10.62993 340.15776,10.62993 340.15776,0 361.41762,0 361.41762,10.62993 382.67748,10.62993 382.67748,0 403.93734,0 403.93734,10.62993 425.1972,10.62993 425.1972,0 446.45706,0 446.45706,10.62993 467.71692,10.62993 467.71692,0 499.60671,0 499.60671,10.62993 520.86657,10.62993 520.86657,31.88979 531.4965,31.88979 531.4965,63.77958 520.86657,63.77958 520.86657,85.03944 531.4965,85.03944 531.4965,106.2993 520.86657,106.2993 520.86657,127.55916 531.4965,127.55916 531.4965,148.81902 520.86657,148.81902 520.86657,170.07888 531.4965,170.07888 531.4965,191.33874 520.86657,191.33874 520.86657,212.5986 531.4965,212.5986 531.4965,233.85846 520.86657,233.85846 520.86657,255.11832 531.4965,255.11832 531.4965,276.37818 520.86657,276.37818 520.86657,297.63804 531.4965,297.63804 531.4965,318.8979 520.86657,318.8979 520.86657,340.15776 531.4965,340.15776 531.4965,361.41762 520.86657,361.41762 520.86657,382.67748 531.4965,382.67748 531.4965,403.93734 520.86657,403.93734 520.86657,425.1972 531.4965,425.1972 531.4965,446.45706 520.86657,446.45706 520.86657,467.71692 531.4965,467.71692 531.4965,499.60671 520.86657,499.60671 520.86657,520.86657 499.60671,520.86657 499.60671,531.4965 467.71692,531.4965 467.71692,520.86657 446.45706,520.86657 446.45706,531.4965 425.1972,531.4965 425.1972,520.86657 403.93734,520.86657 403.93734,531.4965 382.67748,531.4965 382.67748,520.86657 361.41762,520.86657 361.41762,531.4965 340.15776,531.4965 340.15776,520.86657 318.8979,520.86657 318.8979,531.4965 297.63804,531.4965 297.63804,520.86657 276.37818,520.86657 276.37818,531.4965 255.11832,531.4965 255.11832,520.86657 233.85846,520.86657 233.85846,531.4965 212.5986,531.4965 212.5986,520.86657 191.33874,520.86657 191.33874,531.4965 170.07888,531.4965 170.07888,520.86657 148.81902,520.86657 148.81902,531.4965 127.55916,531.4965 127.55916,520.86657 106.2993,520.86657 106.2993,531.4965 85.03944,531.4965 85.03944,520.86657 63.77958,520.86657 63.77958,531.4965 31.88979,531.4965 31.88979,520.86657 10.62993,520.86657 10.62993,499.60671 0,499.60671 0,467.71692 10.62993,467.71692 10.62993,446.45706 0,446.45706 0,425.1972 10.62993,425.1972 10.62993,403.93734 0,403.93734 0,382.67748 10.62993,382.67748 10.62993,361.41762 0,361.41762 0,340.15776 10.62993,340.15776 10.62993,318.8979 0,318.8979 0,297.63804 10.62993,297.63804 10.62993,276.37818 0,276.37818 0,255.11832 10.62993,255.11832 10.62993,233.85846 0,233.85846 0,212.5986 10.62993,212.5986 10.62993,191.33874 0,191.33874 0,170.07888 10.62993,170.07888 10.62993,148.81902 0,148.81902 0,127.55916 10.62993,127.55916 10.62993,106.2993 0,106.2993 0,85.03944 10.62993,85.03944 10.62993,63.77958 0,63.77958 0,31.88979 10.62993,31.88979 10.62993,10.62993 31.88979,10.62993 31.88979,0 63.77958,0 63.77958,10.62993 85.03944,10.62993 "
       id="polygon3547" />
    <circle
       cx="88.582748"
       cy="88.582748"
       r="10.62993"
       style="fill:none;stroke:#000000;stroke-width:0.90000075"
       id="circle3549" />
    <g
       transform="scale(0.01730132,0.01730132)"
       id="g3551">
      <g
         transform="translate(-4560,819)"
         id="g3553">
        <path
           transform="matrix(1,0,0,-1,16384,20480)"
           d="m 981,899 -66,-340 283,0 0,-129 -307,0 L 807,0 670,0 754,430 451,430 369,0 233,0 l 80,430 -262,0 0,129 287,0 68,340 -277,0 0,127 299,0 82,436 139,0 -82,-436 305,0 84,436 134,0 -84,-436 264,0 0,-127 -289,0 z m -506,-340 303,0 66,340 -303,0 z"
           id="path3555"
           inkscape:connector-curvature="0"
           style="fill:#000000;stroke-width:0" />
        <path
           transform="matrix(1,0,0,-1,17707,20480)"
           d="m 1026,389 c 0,-128.667 -46.666,-228.999 -139.999,-300.999 -93.333,-72 -220,-108 -380,-108 -173.333,0 -306.666,22.333 -399.999,67 l 0,164 c 60,-25.333 125.333,-45.333 196,-60 70.667,-14.667 140.667,-22 210,-22 113.333,0 198.666,21.5 255.999,64.5 57.333,43 86,102.833 86,179.5 0,50.667 -10.167,92.167 -30.5,124.5 -20.333,32.333 -54.333,62.166 -102,89.499 -47.667,27.333 -120.167,58.333 -217.5,93 -136,48.667 -233.167,106.334 -291.5,173.001 -58.333,66.667 -87.5,153.667 -87.5,261 0,112.667 42.333,202.334 127,269.001 84.667,66.667 196.667,100 336,100 145.333,0 279,-26.667 401,-80 l -53,-148 c -120.667,50.667 -238,76 -352,76 -90,0 -160.333,-19.333 -211,-58 -50.667,-38.667 -76,-92.334 -76,-161.001 0,-50.667 9.33301,-92.167 28,-124.5 18.66699,-32.333 50.167,-62 94.5,-89 44.333,-27 112.166,-56.833 203.499,-89.5 C 776.333,754.334 881.833,695.667 939.5,633 997.167,570.333 1026,489 1026,389 Z"
           id="path3557"
           inkscape:connector-curvature="0"
           style="fill:#000000;stroke-width:0" />
        <path
           transform="matrix(1,0,0,-1,18831,20480)"
           d="m 1311,0 -170,0 0,688 -770,0 0,-688 -170,0 0,1462 170,0 0,-622 770,0 0,622 170,0 0,-1462 z"
           id="path3559"
           inkscape:connector-curvature="0"
           style="fill:#000000;stroke-width:0" />
        <path
           transform="matrix(1,0,0,-1,20342,20480)"
           d="M 1368,745 C 1368,503.667 1302.5,319.167 1171.5,191.5 1040.5,63.833 852,0 606,0 l -405,0 0,1462 448,0 c 227.333,0 404,-63 530,-189 126,-126 189,-302 189,-528 z m -180,-6 c 0,190.667 -47.832,334.333 -143.499,431 -95.667,96.667 -237.834,145 -426.501,145 l -247,0 0,-1168 207,0 c 202.667,0 355,49.833 457,149.5 102,99.667 153,247.167 153,442.5 z"
           id="path3561"
           inkscape:connector-curvature="0"
           style="fill:#000000;stroke-width:0" />
        <path
           transform="matrix(1,0,0,-1,21835,20480)"
           d="m 201,1462 413,0 c 194,0 334.333,-29 421,-87 86.667,-58 130,-149.667 130,-275 0,-86.667 -24.167,-158.167 -72.5,-214.5 C 1044.167,829.167 973.667,792.667 881,776 l 0,-10 C 1103,728 1214,611.333 1214,416 1214,285.333 1169.833,183.333 1081.5,110 993.167,36.667 869.667,0 711,0 l -510,0 0,1462 z m 170,-626 280,0 c 120,0 206.333,18.833 259,56.5 52.667,37.667 79,101.167 79,190.5 0,82 -29.333,141.167 -88,177.5 -58.667,36.333 -152,54.5 -280,54.5 l -250,0 0,-479 z m 0,-144 0,-547.001 305,0 c 118,0 206.833,22.833 266.5,68.5 59.667,45.667 89.5,117.167 89.5,214.5 0,90.667 -30.5,157.334 -91.5,200.001 -61,42.667 -153.833,64 -278.5,64 l -291,0 z"
           id="path3563"
           inkscape:connector-curvature="0"
           style="fill:#000000;stroke-width:0" />
        <path
           transform="matrix(1,0,0,-1,23162,20480)"
           d="m 715,0 -162.001,0 0,1042 c 0,86.667 2.66699,168.667 8,246 -14,-14 -29.667,-28.667 -47,-44 C 496.666,1228.667 417.333,1163.667 276,1049 l -88,114 387,299 140,0 0,-1462 z"
           id="path3565"
           inkscape:connector-curvature="0"
           style="fill:#000000;stroke-width:0" />
        <path
           transform="matrix(1,0,0,-1,24333,20480)"
           d="m 285,0 606,1309 -797,0 0,153 973,0 0,-133 L 469,0 285,0 Z"
           id="path3567"
           inkscape:connector-curvature="0"
           style="fill:#000000;stroke-width:0" />
      </g>
    </g>
    <g
       transform="scale(0.01730132,0.01730132)"
       id="g3569">
      <g
         transform="translate(-7823.5,819)"
         id="g3571">
        <path
           transform="matrix(1,0,0,-1,16384,16384)"
           d="M 1368,745 C 1368,503.667 1302.5,319.167 1171.5,191.5 1040.5,63.833 852,0 606,0 l -405,0 0,1462 448,0 c 227.333,0 404,-63 530,-189 126,-126 189,-302 189,-528 z m -180,-6 c 0,190.667 -47.832,334.333 -143.499,431 -95.667,96.667 -237.834,145 -426.501,145 l -247,0 0,-1168 207,0 c 202.667,0 355,49.833 457,149.5 102,99.667 153,247.167 153,442.5 z"
           id="path3573"
           inkscape:connector-curvature="0"
           style="fill:#000000;stroke-width:0" />
        <path
           transform="matrix(1,0,0,-1,17877,16384)"
           d="m 201,0 0,1462 170,0 L 371,0 201,0 Z"
           id="path3575"
           inkscape:connector-curvature="0"
           style="fill:#000000;stroke-width:0" />
        <path
           transform="matrix(1,0,0,-1,18448,16384)"
           d="m 573,731 390,731 184,0 -488,-895 0,-567 -172,0 0,559 -487,903 186,0 z"
           id="path3577"
           inkscape:connector-curvature="0"
           style="fill:#000000;stroke-width:0" />
        <path
           transform="matrix(1,0,0,-1,19595,16384)"
           d=""
           id="path3579"
           inkscape:connector-curvature="0"
           style="fill:#000000;stroke-width:0" />
        <path
           transform="matrix(1,0,0,-1,20127,16384)"
           d="m 371,0 -170,0 0,1462 815,0 0,-151 -645,0 0,-535 606,0 0,-151 -606,0 0,-625 z"
           id="path3581"
           inkscape:connector-curvature="0"
           style="fill:#000000;stroke-width:0" />
        <path
           transform="matrix(1,0,0,-1,21184,16384)"
           d="m 342,0 -166,0 0,1556 166,0 0,-1556 z"
           id="path3583"
           inkscape:connector-curvature="0"
           style="fill:#000000;stroke-width:0" />
        <path
           transform="matrix(1,0,0,-1,21702,16384)"
           d="m 332,1096 -0.003,-710.999 c 0,-89.333 20.333,-156 61,-200 40.667,-44 104.334,-66 191.001,-66 114.667,0 198.5,31.333 251.5,94 53,62.667 79.5,165 79.5,307 l 0,576 166,0 0,-1096 -137,0 -24,147 -9,0 c -34,-54 -81.167,-95.333 -141.5,-124 -60.333,-28.667 -129.166,-43 -206.499,-43 -133.333,0 -233.166,31.667 -299.499,95 C 197.167,138.334 164,239.667 164,379 l 0,717 168,0 z"
           id="path3585"
           inkscape:connector-curvature="0"
           style="fill:#000000;stroke-width:0" />
        <path
           transform="matrix(1,0,0,-1,22959,16384)"
           d="m 1122,549 c 0,-178.667 -44.999,-318.168 -134.999,-418.501 -90,-100.333 -214.333,-150.5 -373,-150.5 -98,0 -185,23 -261,69 -76,46 -134.667,112 -176,198 -41.333,86 -62,186.667 -62,302 0,178.667 44.667,317.834 134,417.501 89.333,99.667 213.333,149.5 372,149.5 153.333,0 275.166,-51 365.499,-153 C 1076.833,861 1122,723 1122,549 Z m -834.999,-10e-4 c 0,-140 28,-246.667 84,-320 56,-73.333 138.333,-110 247,-110 108.667,0 191.167,36.5 247.5,109.5 56.333,73 84.5,179.833 84.5,320.5 0,139.333 -28.167,245.166 -84.5,317.499 -56.333,72.333 -139.5,108.5 -249.5,108.5 -108.667,0 -190.667,-35.667 -246,-107 -55.333,-71.333 -83,-177.666 -83,-318.999 z"
           id="path3587"
           inkscape:connector-curvature="0"
           style="fill:#000000;stroke-width:0" />
        <path
           transform="matrix(1,0,0,-1,24196,16384)"
           d="m 676,1116 c 48.667,0 92.333,-4 131,-12 L 784,950 C 738.667,960 698.667,965 664,965 575.333,965 499.5,929 436.5,857 373.5,785 342,695.333 342,588 l 0,-588 -166,0 0,1096 137,0 19,-203 8,0 c 40.667,71.333 89.667,126.333 147,165 57.333,38.667 120.333,58 189,58 z"
           id="path3589"
           inkscape:connector-curvature="0"
           style="fill:#000000;stroke-width:0" />
        <path
           transform="matrix(1,0,0,-1,25032,16384)"
           d="m 1122,549 c 0,-178.667 -44.999,-318.168 -134.999,-418.501 -90,-100.333 -214.333,-150.5 -373,-150.5 -98,0 -185,23 -261,69 -76,46 -134.667,112 -176,198 -41.333,86 -62,186.667 -62,302 0,178.667 44.667,317.834 134,417.501 89.333,99.667 213.333,149.5 372,149.5 153.333,0 275.166,-51 365.499,-153 C 1076.833,861 1122,723 1122,549 Z m -834.999,-10e-4 c 0,-140 28,-246.667 84,-320 56,-73.333 138.333,-110 247,-110 108.667,0 191.167,36.5 247.5,109.5 56.333,73 84.5,179.833 84.5,320.5 0,139.333 -28.167,245.166 -84.5,317.499 -56.333,72.333 -139.5,108.5 -249.5,108.5 -108.667,0 -190.667,-35.667 -246,-107 -55.333,-71.333 -83,-177.666 -83,-318.999 z"
           id="path3591"
           inkscape:connector-curvature="0"
           style="fill:#000000;stroke-width:0" />
        <path
           transform="matrix(1,0,0,-1,26269,16384)"
           d="m 1573,0 0,713 c 0,87.333 -18.667,152.833 -56,196.5 -37.333,43.667 -95.333,65.5 -174,65.5 -103.333,0 -179.666,-29.667 -228.999,-89 -49.333,-59.333 -74,-150.666 -74,-273.999 l 0,-612 -165.99995,0 0,713 c 0,87.333 -18.667,152.833 -56,196.5 -37.333,43.667 -95.666,65.5 -174.999,65.5 -104,0 -180.167,-31.167 -228.5,-93.5 -48.333,-62.333 -72.5,-164.5 -72.5,-306.5 l 0,-575 -166,0 0,1096 135,0 27,-150 8,0 c 31.333,53.333 75.5,95 132.5,125 57,30 120.833,45 191.5,45 171.333,0 283.333,-62 335.99995,-186 l 8,0 c 32.667,57.333 80,102.666 142,135.999 62,33.333 132.667,50 212,50 124,0 216.833,-31.833 278.5,-95.5 C 1708.167,956.833 1739,855 1739,715 l 0,-715 -166,0 z"
           id="path3593"
           inkscape:connector-curvature="0"
           style="fill:#000000;stroke-width:0" />
        <path
           transform="matrix(1,0,0,-1,28174,16384)"
           d="m 639,-20 c -162,0 -289.833,49.334 -383.5,148.001 -93.667,98.667 -140.5,235.667 -140.5,411 0,176.667 43.5,317 130.5,421 87,104 203.833,156 350.5,156 137.333,0 246,-45.167 326,-135.5 80,-90.333 120,-209.5 120,-357.5 l 0,-105 -755,0 C 290.33301,389.334 322.833,291.667 384.5,225 446.167,158.333 533,125 645,125 c 118,0 234.667,24.667 350,74 L 995,51 C 936.333,25.667 880.833,7.5 828.5,-3.5 776.167,-14.5 713,-20 639,-20 Z m -45,997.001 c -88,0 -158.167,-28.6689 -210.5,-86.002 C 331.167,833.6659 300.334,754.333 291.001,653 l 573,0 c 0,104.667 -23.333,184.834 -70,240.501 -46.667,55.667 -113.334,83.5 -200.001,83.5 z"
           id="path3595"
           inkscape:connector-curvature="0"
           style="fill:#000000;stroke-width:0" />
        <path
           transform="matrix(1,0,0,-1,29323,16384)"
           d="m 530,117 c 29.333,0 57.667,2.16797 85,6.50098 27.333,4.33301 49,8.83301 65,13.5 l 0,-127 c -18,-8.66699 -44.5,-15.834 -79.5,-21.501 -35,-5.667 -66.5,-8.5 -94.5,-8.5 -212,0 -318,111.667 -318,335 l 0,652 -157,0 0,80.00002 157,69 70,234 96,0 0,-254 318,0 0,-129.00002 -318,0 0,-645 c 0,-66 15.667,-116.667 47,-152 31.333,-35.333 74.333,-53 129,-53 z"
           id="path3597"
           inkscape:connector-curvature="0"
           style="fill:#000000;stroke-width:0" />
        <path
           transform="matrix(1,0,0,-1,30046,16384)"
           d="m 639,-20 c -162,0 -289.833,49.334 -383.5,148.001 -93.667,98.667 -140.5,235.667 -140.5,411 0,176.667 43.5,317 130.5,421 87,104 203.833,156 350.5,156 137.333,0 246,-45.167 326,-135.5 80,-90.333 120,-209.5 120,-357.5 l 0,-105 -755,0 C 290.33301,389.334 322.833,291.667 384.5,225 446.167,158.333 533,125 645,125 c 118,0 234.667,24.667 350,74 L 995,51 C 936.333,25.667 880.833,7.5 828.5,-3.5 776.167,-14.5 713,-20 639,-20 Z m -45,997.001 c -88,0 -158.167,-28.6689 -210.5,-86.002 C 331.167,833.6659 300.334,754.333 291.001,653 l 573,0 c 0,104.667 -23.333,184.834 -70,240.501 -46.667,55.667 -113.334,83.5 -200.001,83.5 z"
           id="path3599"
           inkscape:connector-curvature="0"
           style="fill:#000000;stroke-width:0" />
        <path
           transform="matrix(1,0,0,-1,31195,16384)"
           d="m 676,1116 c 48.667,0 92.333,-4 131,-12 L 784,950 C 738.667,960 698.667,965 664,965 575.333,965 499.5,929 436.5,857 373.5,785 342,695.333 342,588 l 0,-588 -166,0 0,1096 137,0 19,-203 8,0 c 40.667,71.333 89.667,126.333 147,165 57.333,38.667 120.333,58 189,58 z"
           id="path3601"
           inkscape:connector-curvature="0"
           style="fill:#000000;stroke-width:0" />
      </g>
    </g>
  </g>
  <!-- Bottom-->
  <g
     transform="translate(553.99652,199.66552)"
     id="g3603">
    <polygon
       style="fill:none;stroke:#000000;stroke-width:0.90000075"
       points="148.81902,10.62993 170.07888,10.62993 170.07888,0 191.33874,0 191.33874,10.62993 212.5986,10.62993 212.5986,0 233.85846,0 233.85846,10.62993 255.11832,10.62993 255.11832,0 276.37818,0 276.37818,10.62993 297.63804,10.62993 297.63804,0 318.8979,0 318.8979,10.62993 340.15776,10.62993 340.15776,0 361.41762,0 361.41762,10.62993 382.67748,10.62993 382.67748,0 403.93734,0 403.93734,10.62993 425.1972,10.62993 425.1972,0 446.45706,0 446.45706,10.62993 467.71692,10.62993 467.71692,0 499.60671,0 499.60671,10.62993 520.86657,10.62993 520.86657,31.88979 531.4965,31.88979 531.4965,63.77958 520.86657,63.77958 520.86657,85.03944 531.4965,85.03944 531.4965,106.2993 520.86657,106.2993 520.86657,127.55916 531.4965,127.55916 531.4965,148.81902 520.86657,148.81902 520.86657,170.07888 531.4965,170.07888 531.4965,191.33874 520.86657,191.33874 520.86657,212.5986 531.4965,212.5986 531.4965,233.85846 520.86657,233.85846 520.86657,255.11832 531.4965,255.11832 531.4965,276.37818 520.86657,276.37818 520.86657,297.63804 531.4965,297.63804 531.4965,318.8979 520.86657,318.8979 520.86657,340.15776 531.4965,340.15776 531.4965,361.41762 520.86657,361.41762 520.86657,382.67748 531.4965,382.67748 531.4965,403.93734 520.86657,403.93734 520.86657,425.1972 531.4965,425.1972 531.4965,446.45706 520.86657,446.45706 520.86657,467.71692 531.4965,467.71692 531.4965,499.60671 520.86657,499.60671 520.86657,520.86657 499.60671,520.86657 499.60671,531.4965 467.71692,531.4965 467.71692,520.86657 446.45706,520.86657 446.45706,531.4965 425.1972,531.4965 425.1972,520.86657 403.93734,520.86657 403.93734,531.4965 382.67748,531.4965 382.67748,520.86657 361.41762,520.86657 361.41762,531.4965 340.15776,531.4965 340.15776,520.86657 318.8979,520.86657 318.8979,531.4965 297.63804,531.4965 297.63804,520.86657 276.37818,520.86657 276.37818,531.4965 255.11832,531.4965 255.11832,520.86657 233.85846,520.86657 233.85846,531.4965 212.5986,531.4965 212.5986,520.86657 191.33874,520.86657 191.33874,531.4965 170.07888,531.4965 170.07888,520.86657 148.81902,520.86657 148.81902,531.4965 127.55916,531.4965 127.55916,520.86657 106.2993,520.86657 106.2993,531.4965 85.03944,531.4965 85.03944,520.86657 63.77958,520.86657 63.77958,531.4965 31.88979,531.4965 31.88979,520.86657 10.62993,520.86657 10.62993,499.60671 0,499.60671 0,467.71692 10.62993,467.71692 10.62993,446.45706 0,446.45706 0,425.1972 10.62993,425.1972 10.62993,403.93734 0,403.93734 0,382.67748 10.62993,382.67748 10.62993,361.41762 0,361.41762 0,340.15776 10.62993,340.15776 10.62993,318.8979 0,318.8979 0,297.63804 10.62993,297.63804 10.62993,276.37818 0,276.37818 0,255.11832 10.62993,255.11832 10.62993,233.85846 0,233.85846 0,212.5986 10.62993,212.5986 10.62993,191.33874 0,191.33874 0,170.07888 10.62993,170.07888 10.62993,148.81902 0,148.81902 0,127.55916 10.62993,127.55916 10.62993,106.2993 0,106.2993 0,85.03944 10.62993,85.03944 10.62993,63.77958 0,63.77958 0,31.88979 10.62993,31.88979 10.62993,10.62993 31.88979,10.62993 31.88979,0 63.77958,0 63.77958,10.62993 85.03944,10.62993 85.03944,0 106.2993,0 106.2993,10.62993 127.55916,10.62993 127.55916,0 148.81902,0 "
       id="polygon3605" />
  </g>
</svg>
