<?xml version="1.0" encoding="UTF-8" standalone="no"?>
<svg
   xmlns:dc="http://purl.org/dc/elements/1.1/"
   xmlns:cc="http://creativecommons.org/ns#"
   xmlns:rdf="http://www.w3.org/1999/02/22-rdf-syntax-ns#"
   xmlns:svg="http://www.w3.org/2000/svg"
   xmlns="http://www.w3.org/2000/svg"
   xmlns:sodipodi="http://sodipodi.sourceforge.net/DTD/sodipodi-0.dtd"
   xmlns:inkscape="http://www.inkscape.org/namespaces/inkscape"
   version="1.1"
   width="282.7mm"
   height="92.7mm"
   viewBox=" 0 0 1001.6937369999999 328.464837"
   id="svg445"
   sodipodi:docname="caseplans.svg"
   inkscape:version="0.92.1 r15371">
  <metadata
     id="metadata451">
    <rdf:RDF>
      <cc:Work
         rdf:about="">
        <dc:format>image/svg+xml</dc:format>
        <dc:type
           rdf:resource="http://purl.org/dc/dcmitype/StillImage" />
      </cc:Work>
    </rdf:RDF>
  </metadata>
  <defs
     id="defs449" />
  <sodipodi:namedview
     pagecolor="#ffffff"
     bordercolor="#666666"
     borderopacity="1"
     objecttolerance="10"
     gridtolerance="10"
     guidetolerance="10"
     inkscape:pageopacity="0"
     inkscape:pageshadow="2"
     inkscape:window-width="1024"
     inkscape:window-height="705"
     id="namedview447"
     showgrid="false"
     inkscape:zoom="4.6801946"
     inkscape:cx="83.101558"
     inkscape:cy="116.34399"
     inkscape:window-x="0"
     inkscape:window-y="42"
     inkscape:window-maximized="1"
     inkscape:current-layer="g439" />
  <!-- Front-->
  <g
     transform="translate(22.5000185, 22.5000185) "
     id="g245">
    <polygon
       style="stroke:#000000; fill:none; stroke-width:0.90000074"
       points="0, 0 26.574825, 0 26.574825, 10.62993 53.14965, 10.62993 53.14965, 0 74.40951, 0 74.40951, 10.62993 95.66937, 10.62993 95.66937, 0 116.92922999999999, 0 116.92922999999999, 10.62993 138.18909, 10.62993 138.18909, 0 159.44895, 0 159.44895, 10.62993 180.70881, 10.62993 180.70881, 0 201.96867, 0 201.96867, 10.62993 223.22853, 10.62993 223.22853, 0 244.48839, 0 244.48839, 10.62993 265.74825, 10.62993 265.74825, 0 287.00811, 0 287.00811, 10.62993 308.26797, 10.62993 308.26797, 0 329.52783, 0 329.52783, 10.62993 350.78769, 10.62993 350.78769, 0 372.04755, 0 372.04755, 10.62993 398.622375, 10.62993 398.622375, 0 425.1972, 0 425.1972, 30.118135 414.56727, 30.118135 414.56727, 60.23627 425.1972, 60.23627 425.1972, 81.49613 414.56727, 81.49613 414.56727, 111.614265 425.1972, 111.614265 425.1972, 141.73239999999998 398.622375, 141.73239999999998 398.622375, 131.10246999999998 372.04755, 131.10246999999998 372.04755, 141.73239999999998 350.78769, 141.73239999999998 350.78769, 131.10246999999998 329.52783, 131.10246999999998 329.52783, 141.73239999999998 308.26797, 141.73239999999998 308.26797, 131.10246999999998 287.00811, 131.10246999999998 287.00811, 141.73239999999998 265.74825, 141.73239999999998 265.74825, 131.10246999999998 244.48839, 131.10246999999998 244.48839, 141.73239999999998 223.22853, 141.73239999999998 223.22853, 131.10246999999998 201.96867, 131.10246999999998 201.96867, 141.73239999999998 180.70881, 141.73239999999998 180.70881, 131.10246999999998 159.44895, 131.10246999999998 159.44895, 141.73239999999998 138.18909, 141.73239999999998 138.18909, 131.10246999999998 116.92922999999999, 131.10246999999998 116.92922999999999, 141.73239999999998 95.66937, 141.73239999999998 95.66937, 131.10246999999998 74.40951, 131.10246999999998 74.40951, 141.73239999999998 53.14965, 141.73239999999998 53.14965, 131.10246999999998 26.574825, 131.10246999999998 26.574825, 141.73239999999998 0, 141.73239999999998 0, 111.614265 10.62993, 111.614265 10.62993, 81.49613 0, 81.49613 0, 60.23627 10.62993, 60.23627 10.62993, 30.118135 0, 30.118135 "
       id="polygon241" />
    <rect
       x="35.433099999999996"
       y="35.433099999999996"
       width="354.331"
       height="70.86619999999999"
       rx="7.08662"
       ry="7.08662"
       style="stroke:#000000;stroke-width:0.90000074;fill:none"
       id="rect243" />
  </g>
  <!-- Back-->
  <g
     transform="translate(447.69721849999996, 22.5000185) "
     id="g251">
    <polygon
       style="stroke:#000000; fill:none; stroke-width:0.90000074"
       points="0, 0 26.574825, 0 26.574825, 10.62993 53.14965, 10.62993 53.14965, 0 74.40951, 0 74.40951, 10.62993 95.66937, 10.62993 95.66937, 0 116.92922999999999, 0 116.92922999999999, 10.62993 138.18909, 10.62993 138.18909, 0 159.44895, 0 159.44895, 10.62993 180.70881, 10.62993 180.70881, 0 201.96867, 0 201.96867, 10.62993 223.22853, 10.62993 223.22853, 0 244.48839, 0 244.48839, 10.62993 265.74825, 10.62993 265.74825, 0 287.00811, 0 287.00811, 10.62993 308.26797, 10.62993 308.26797, 0 329.52783, 0 329.52783, 10.62993 350.78769, 10.62993 350.78769, 0 372.04755, 0 372.04755, 10.62993 398.622375, 10.62993 398.622375, 0 425.1972, 0 425.1972, 30.118135 414.56727, 30.118135 414.56727, 60.23627 425.1972, 60.23627 425.1972, 81.49613 414.56727, 81.49613 414.56727, 111.614265 425.1972, 111.614265 425.1972, 141.73239999999998 398.622375, 141.73239999999998 398.622375, 131.10246999999998 372.04755, 131.10246999999998 372.04755, 141.73239999999998 350.78769, 141.73239999999998 350.78769, 131.10246999999998 329.52783, 131.10246999999998 329.52783, 141.73239999999998 308.26797, 141.73239999999998 308.26797, 131.10246999999998 287.00811, 131.10246999999998 287.00811, 141.73239999999998 265.74825, 141.73239999999998 265.74825, 131.10246999999998 244.48839, 131.10246999999998 244.48839, 141.73239999999998 223.22853, 141.73239999999998 223.22853, 131.10246999999998 201.96867, 131.10246999999998 201.96867, 141.73239999999998 180.70881, 141.73239999999998 180.70881, 131.10246999999998 159.44895, 131.10246999999998 159.44895, 141.73239999999998 138.18909, 141.73239999999998 138.18909, 131.10246999999998 116.92922999999999, 131.10246999999998 116.92922999999999, 141.73239999999998 95.66937, 141.73239999999998 95.66937, 131.10246999999998 74.40951, 131.10246999999998 74.40951, 141.73239999999998 53.14965, 141.73239999999998 53.14965, 131.10246999999998 26.574825, 131.10246999999998 26.574825, 141.73239999999998 0, 141.73239999999998 0, 111.614265 10.62993, 111.614265 10.62993, 81.49613 0, 81.49613 0, 60.23627 10.62993, 60.23627 10.62993, 30.118135 0, 30.118135 "
       id="polygon247" />
    <rect
       x="35.433099999999996"
       y="35.433099999999996"
       width="354.331"
       height="70.86619999999999"
       rx="7.08662"
       ry="7.08662"
       style="stroke:#000000;stroke-width:0.90000074;fill:none"
       id="rect249" />
  </g>
  <!-- Left-->
  <g
     transform="translate(872.8944184999999, 22.5000185) "
     id="g255">
    <polygon
       style="stroke:#000000; fill:none; stroke-width:0.90000074"
       points="10.62993, 0 21.25986, 0 21.25986, 10.62993 42.51972, 10.62993 42.51972, 0 63.779579999999996, 0 63.779579999999996, 10.62993 85.03944, 10.62993 85.03944, 0 95.66937, 0 95.66937, 30.118135 106.2993, 30.118135 106.2993, 60.23627 95.66937, 60.23627 95.66937, 81.49613 106.2993, 81.49613 106.2993, 111.614265 95.66937, 111.614265 95.66937, 141.73239999999998 85.03944, 141.73239999999998 85.03944, 131.10246999999998 63.779579999999996, 131.10246999999998 63.779579999999996, 141.73239999999998 42.51972, 141.73239999999998 42.51972, 131.10246999999998 21.25986, 131.10246999999998 21.25986, 141.73239999999998 10.62993, 141.73239999999998 10.62993, 111.614265 0, 111.614265 0, 81.49613 10.62993, 81.49613 10.62993, 60.23627 0, 60.23627 0, 30.118135 10.62993, 30.118135 "
       id="polygon253" />
  </g>
  <!-- Right-->
  <g
     transform="translate(872.8944184999999, 164.2324185) "
     id="g259">
    <polygon
       style="stroke:#000000; fill:none; stroke-width:0.90000074"
       points="10.62993, 0 21.25986, 0 21.25986, 10.62993 42.51972, 10.62993 42.51972, 0 63.779579999999996, 0 63.779579999999996, 10.62993 85.03944, 10.62993 85.03944, 0 95.66937, 0 95.66937, 30.118135 106.2993, 30.118135 106.2993, 60.23627 95.66937, 60.23627 95.66937, 81.49613 106.2993, 81.49613 106.2993, 111.614265 95.66937, 111.614265 95.66937, 141.73239999999998 85.03944, 141.73239999999998 85.03944, 131.10246999999998 63.779579999999996, 131.10246999999998 63.779579999999996, 141.73239999999998 42.51972, 141.73239999999998 42.51972, 131.10246999999998 21.25986, 131.10246999999998 21.25986, 141.73239999999998 10.62993, 141.73239999999998 10.62993, 111.614265 0, 111.614265 0, 81.49613 10.62993, 81.49613 10.62993, 60.23627 0, 60.23627 0, 30.118135 10.62993, 30.118135 "
       id="polygon257" />
  </g>
  <!-- Top-->
  <g
     transform="translate(22.5000185, 164.2324185) "
     id="g439">
    <polygon
       style="stroke:#000000; fill:none; stroke-width:0.90000074"
       points="10.62993, 10.62993 26.574825, 10.62993 26.574825, 0 53.14965, 0 53.14965, 10.62993 74.40951, 10.62993 74.40951, 0 95.66937, 0 95.66937, 10.62993 116.92922999999999, 10.62993 116.92922999999999, 0 138.18909, 0 138.18909, 10.62993 159.44895, 10.62993 159.44895, 0 180.70881, 0 180.70881, 10.62993 201.96867, 10.62993 201.96867, 0 223.22853, 0 223.22853, 10.62993 244.48839, 10.62993 244.48839, 0 265.74825, 0 265.74825, 10.62993 287.00811, 10.62993 287.00811, 0 308.26797, 0 308.26797, 10.62993 329.52783, 10.62993 329.52783, 0 350.78769, 0 350.78769, 10.62993 372.04755, 10.62993 372.04755, 0 398.622375, 0 398.622375, 10.62993 414.56727, 10.62993 414.56727, 21.25986 425.1972, 21.25986 425.1972, 42.51972 414.56727, 42.51972 414.56727, 63.779579999999996 425.1972, 63.779579999999996 425.1972, 85.03944 414.56727, 85.03944 414.56727, 95.66937 398.622375, 95.66937 398.622375, 106.2993 372.04755, 106.2993 372.04755, 95.66937 350.78769, 95.66937 350.78769, 106.2993 329.52783, 106.2993 329.52783, 95.66937 308.26797, 95.66937 308.26797, 106.2993 287.00811, 106.2993 287.00811, 95.66937 265.74825, 95.66937 265.74825, 106.2993 244.48839, 106.2993 244.48839, 95.66937 223.22853, 95.66937 223.22853, 106.2993 201.96867, 106.2993 201.96867, 95.66937 180.70881, 95.66937 180.70881, 106.2993 159.44895, 106.2993 159.44895, 95.66937 138.18909, 95.66937 138.18909, 106.2993 116.92922999999999, 106.2993 116.92922999999999, 95.66937 95.66937, 95.66937 95.66937, 106.2993 74.40951, 106.2993 74.40951, 95.66937 53.14965, 95.66937 53.14965, 106.2993 26.574825, 106.2993 26.574825, 95.66937 10.62993, 95.66937 10.62993, 85.03944 0, 85.03944 0, 63.779579999999996 10.62993, 63.779579999999996 10.62993, 42.51972 0, 42.51972 0, 21.25986 10.62993, 21.25986 "
       id="polygon261" />
    <circle
       cx="35.433099999999996"
       cy="35.433099999999996"
       r="7.08662"
       style="stroke:#000000;stroke-width:0.90000074;fill:none"
       id="circle263" />
    <circle
       cx="70.86619999999999"
       cy="35.433099999999996"
       r="7.08662"
       style="stroke:#000000;stroke-width:0.90000074;fill:none"
       id="circle265" />
    <circle
       cx="35.433099999999996"
       cy="70.86619999999999"
       r="7.08662"
       style="stroke:#000000;stroke-width:0.90000074;fill:none"
       id="circle267" />
    <circle
       cx="70.86619999999999"
       cy="70.86619999999999"
       r="7.08662"
       style="stroke:#000000;stroke-width:0.90000074;fill:none"
       id="circle269" />
    <circle
       cx="106.2993"
       cy="70.86619999999999"
       r="8.858274999999999"
       style="stroke:#000000;stroke-width:0.90000074;fill:none"
       id="circle271" />
    <circle
       cx="106.2993"
       cy="35.433099999999996"
       r="8.858274999999999"
       style="stroke:#000000;stroke-width:0.90000074;fill:none"
       id="circle273" />
    <circle
       cx="141.73239999999998"
       cy="35.433099999999996"
       r="8.858274999999999"
       style="stroke:#000000;stroke-width:0.90000074;fill:none"
       id="circle275" />
    <circle
       cx="141.73239999999998"
       cy="70.86619999999999"
       r="8.858274999999999"
       style="stroke:#000000;stroke-width:0.90000074;fill:none"
       id="circle277" />
    <circle
       cx="372.04755"
       cy="35.433099999999996"
       r="19.488205"
       style="stroke:#000000;stroke-width:0.90000074;fill:none"
       id="circle279" />
    <circle
       cx="336.61445"
       cy="70.86619999999999"
       r="19.488205"
       style="stroke:#000000;stroke-width:0.90000074;fill:none"
       id="circle281" />
    <circle
       cx="265.74825"
       cy="70.86619999999999"
       r="19.488205"
       style="stroke:#000000;stroke-width:0.90000074;fill:none"
       id="circle283" />
    <circle
       cx="301.18135"
       cy="35.433099999999996"
       r="19.488205"
       style="stroke:#000000;stroke-width:0.90000074;fill:none"
       id="circle285" />
    <circle
       cx="177.1655"
       cy="70.86619999999999"
       r="11.5157575"
       style="stroke:#000000;stroke-width:0.90000074;fill:none"
       id="circle287" />
    <circle
       cx="212.5986"
       cy="70.86619999999999"
       r="11.5157575"
       style="stroke:#000000;stroke-width:0.90000074;fill:none"
       id="circle289" />
    <circle
       cx="212.5986"
       cy="35.433099999999996"
       r="11.5157575"
       style="stroke:#000000;stroke-width:0.90000074;fill:none"
       id="circle291" />
    <circle
       cx="177.1655"
       cy="35.433099999999996"
       r="11.5157575"
       style="stroke:#000000;stroke-width:0.90000074;fill:none"
       id="circle293" />
    <g
       transform="scale(0.0051903955078125)"
       id="g309">
      <g
         transform="translate(-1171,819)"
         id="g307">
        <path
           transform="translate(4096, 11605.333333333334)rotate(180) scale(-1, 1)"
           stroke-width="0"
           fill="#000000"
           d="M1069 733c0 -252.667 -39.833 -441.334 -119.5 -566.001s-201.5 -187 -365.5 -187c-157.333 0 -277 63.833 -359 191.5s-123 314.834 -123 561.501c0 254.667 39.667 443.667 119 567s200.333 185 363 185c158.667 0 279.167 -64.333 361.5 -193s123.5 -315 123.5 -559z M270 733c0 -212.667 25 -367.5 75 -464.5s129.667 -145.5 239 -145.5c110.667 0 190.834 49.167 240.501 147.5s74.5 252.5 74.5 462.5s-24.833 363.833 -74.5 461.5s-129.834 146.5 -240.501 146.5c-109.333 0 -189 -48.167 -239 -144.5s-75 -250.833 -75 -463.5z"
           id="path303" />
        <path
           transform="translate(5267, 11605.333333333334)rotate(180) scale(-1, 1)"
           stroke-width="0"
           fill="#000000"
           d="M1061 0l-961 0.000976562v143l385 387c117.333 118.667 194.666 203.334 231.999 254.001s65.333 100 84 148s28 99.667 28 155c0 78 -23.667 139.833 -71 185.5s-113 68.5 -197 68.5c-60.667 0 -118.167 -10 -172.5 -30s-114.833 -56.333 -181.5 -109l-88 113 c134.667 112 281.334 168 440.001 168c137.333 0 245 -35.167 323 -105.5s117 -164.833 117 -283.5c0 -92.667 -26 -184.334 -78 -275.001s-149.333 -205.334 -292 -344.001l-320 -313v-8h752v-154z"
           id="path305" />
      </g>
    </g>
    <g
       transform="scale(0.0051903955078125)"
       id="g317">
      <g
         transform="translate(-1171,819)"
         id="g315">
        <path
           transform="translate(10922.666666666668, 11605.333333333334)rotate(180) scale(-1, 1)"
           stroke-width="0"
           fill="#000000"
           d="M1069 733c0 -252.667 -39.833 -441.334 -119.5 -566.001s-201.5 -187 -365.5 -187c-157.333 0 -277 63.833 -359 191.5s-123 314.834 -123 561.501c0 254.667 39.667 443.667 119 567s200.333 185 363 185c158.667 0 279.167 -64.333 361.5 -193s123.5 -315 123.5 -559z M270 733c0 -212.667 25 -367.5 75 -464.5s129.667 -145.5 239 -145.5c110.667 0 190.834 49.167 240.501 147.5s74.5 252.5 74.5 462.5s-24.833 363.833 -74.5 461.5s-129.834 146.5 -240.501 146.5c-109.333 0 -189 -48.167 -239 -144.5s-75 -250.833 -75 -463.5z"
           id="path311" />
        <path
           transform="translate(12093.666666666668, 11605.333333333334)rotate(180) scale(-1, 1)"
           stroke-width="0"
           fill="#000000"
           d="M1130 336h-217v-336h-159v336h-711v145l694 989h176v-983h217v-151zM754 487v486c0 95.333 3.33301 203 10 323h-8c-32 -64 -62 -117 -90 -159l-457 -650h545z"
           id="path313" />
      </g>
    </g>
    <g
       transform="scale(0.0051903955078125)"
       id="g325">
      <g
         transform="translate(-1171,819)"
         id="g323">
        <path
           transform="translate(10922.666666666668, 4778.666666666667)rotate(180) scale(-1, 1)"
           stroke-width="0"
           fill="#000000"
           d="M1069 733c0 -252.667 -39.833 -441.334 -119.5 -566.001s-201.5 -187 -365.5 -187c-157.333 0 -277 63.833 -359 191.5s-123 314.834 -123 561.501c0 254.667 39.667 443.667 119 567s200.333 185 363 185c158.667 0 279.167 -64.333 361.5 -193s123.5 -315 123.5 -559z M270 733c0 -212.667 25 -367.5 75 -464.5s129.667 -145.5 239 -145.5c110.667 0 190.834 49.167 240.501 147.5s74.5 252.5 74.5 462.5s-24.833 363.833 -74.5 461.5s-129.834 146.5 -240.501 146.5c-109.333 0 -189 -48.167 -239 -144.5s-75 -250.833 -75 -463.5z"
           id="path319" />
        <path
           transform="translate(12093.666666666668, 4778.666666666667)rotate(180) scale(-1, 1)"
           stroke-width="0"
           fill="#000000"
           d="M1006 1118c0 -93.333 -26.167 -169.667 -78.5 -229s-126.5 -99 -222.5 -119v-8c117.333 -14.667 204.333 -52 261 -112s85 -138.667 85 -236c0 -139.333 -48.333 -246.5 -145 -321.5s-234 -112.5 -412 -112.5c-77.333 0 -148.166 5.83301 -212.499 17.5 s-126.833 32.167 -187.5 61.5v158c63.333 -31.333 130.833 -55.166 202.5 -71.499s139.5 -24.5 203.5 -24.5c252.667 0 379 99 379 297c0 177.333 -139.333 266 -418 266h-144v143h146c114 0 204.333 25.167 271 75.5s100 120.166 100 209.499 c0 71.333 -24.5 127.333 -73.5 168s-115.5 61 -199.5 61c-64 0 -124.333 -8.66699 -181 -26s-121.334 -49.333 -194.001 -96l-84 112c60 47.333 129.167 84.5 207.5 111.5s160.833 40.5 247.5 40.5c142 0 252.333 -32.5 331 -97.5s118 -154.167 118 -267.5z"
           id="path321" />
      </g>
    </g>
    <g
       transform="scale(0.0051903955078125)"
       id="g333">
      <g
         transform="translate(-1171,819)"
         id="g331">
        <path
           transform="translate(17749.333333333332, 4778.666666666667)rotate(180) scale(-1, 1)"
           stroke-width="0"
           fill="#000000"
           d="M1069 733c0 -252.667 -39.833 -441.334 -119.5 -566.001s-201.5 -187 -365.5 -187c-157.333 0 -277 63.833 -359 191.5s-123 314.834 -123 561.501c0 254.667 39.667 443.667 119 567s200.333 185 363 185c158.667 0 279.167 -64.333 361.5 -193s123.5 -315 123.5 -559z M270 733c0 -212.667 25 -367.5 75 -464.5s129.667 -145.5 239 -145.5c110.667 0 190.834 49.167 240.501 147.5s74.5 252.5 74.5 462.5s-24.833 363.833 -74.5 461.5s-129.834 146.5 -240.501 146.5c-109.333 0 -189 -48.167 -239 -144.5s-75 -250.833 -75 -463.5z"
           id="path327" />
        <path
           transform="translate(18920.333333333332, 4778.666666666667)rotate(180) scale(-1, 1)"
           stroke-width="0"
           fill="#000000"
           d="M557 893c154 0 275.168 -38.167 363.501 -114.5s132.5 -180.833 132.5 -313.5c0 -151.333 -48.167 -270 -144.5 -356s-229.166 -129 -398.499 -129c-164.667 0 -290.334 26.333 -377.001 79v160c46.667 -30 104.667 -53.5 174 -70.5s137.666 -25.5 204.999 -25.5 c117.333 0 208.5 27.667 273.5 83s97.5 135.333 97.5 240c0 204 -125 306 -375 306c-63.333 0 -148 -9.66699 -254 -29l-86 55l55 684h727v-153h-585l-37 -439c76.667 15.333 153 23 229 23z"
           id="path329" />
      </g>
    </g>
    <g
       transform="scale(0.0051903955078125)"
       id="g341">
      <g
         transform="translate(-1171,819)"
         id="g339">
        <path
           transform="translate(17749.333333333332, 11605.333333333334)rotate(180) scale(-1, 1)"
           stroke-width="0"
           fill="#000000"
           d="M1069 733c0 -252.667 -39.833 -441.334 -119.5 -566.001s-201.5 -187 -365.5 -187c-157.333 0 -277 63.833 -359 191.5s-123 314.834 -123 561.501c0 254.667 39.667 443.667 119 567s200.333 185 363 185c158.667 0 279.167 -64.333 361.5 -193s123.5 -315 123.5 -559z M270 733c0 -212.667 25 -367.5 75 -464.5s129.667 -145.5 239 -145.5c110.667 0 190.834 49.167 240.501 147.5s74.5 252.5 74.5 462.5s-24.833 363.833 -74.5 461.5s-129.834 146.5 -240.501 146.5c-109.333 0 -189 -48.167 -239 -144.5s-75 -250.833 -75 -463.5z"
           id="path335" />
        <path
           transform="translate(18920.333333333332, 11605.333333333334)rotate(180) scale(-1, 1)"
           stroke-width="0"
           fill="#000000"
           d="M117 625c0 287.333 55.834 502.166 167.501 644.499s276.834 213.5 495.501 213.5c75.333 0 134.666 -6.33301 177.999 -19v-143c-51.333 16.667 -110 25 -176 25c-156.667 0 -276.334 -48.833 -359.001 -146.5s-128 -251.167 -136 -460.5h12 c73.333 114.667 189.333 172 348 172c131.333 0 234.833 -39.667 310.5 -119s113.5 -187 113.5 -323c0 -152 -41.5 -271.5 -124.5 -358.5s-195.167 -130.5 -336.5 -130.5c-151.333 0 -271.333 56.833 -360 170.5s-133 271.834 -133 474.501zM608.001 121 c94.667 0 168.168 29.832 220.501 89.499s78.5 145.834 78.5 258.501c0 96.667 -24.333 172.667 -73 228s-121.334 83 -218.001 83c-60 0 -115 -12.333 -165 -37s-89.833 -58.667 -119.5 -102s-44.5 -88.333 -44.5 -135c0 -68.667 13.333 -132.667 40 -192 s64.5 -106.333 113.5 -141s104.833 -52 167.5 -52z"
           id="path337" />
      </g>
    </g>
    <g
       transform="scale(0.0051903955078125)"
       id="g349">
      <g
         transform="translate(-1171,819)"
         id="g347">
        <path
           transform="translate(24576, 4778.666666666667)rotate(180) scale(-1, 1)"
           stroke-width="0"
           fill="#000000"
           d="M1069 733c0 -252.667 -39.833 -441.334 -119.5 -566.001s-201.5 -187 -365.5 -187c-157.333 0 -277 63.833 -359 191.5s-123 314.834 -123 561.501c0 254.667 39.667 443.667 119 567s200.333 185 363 185c158.667 0 279.167 -64.333 361.5 -193s123.5 -315 123.5 -559z M270 733c0 -212.667 25 -367.5 75 -464.5s129.667 -145.5 239 -145.5c110.667 0 190.834 49.167 240.501 147.5s74.5 252.5 74.5 462.5s-24.833 363.833 -74.5 461.5s-129.834 146.5 -240.501 146.5c-109.333 0 -189 -48.167 -239 -144.5s-75 -250.833 -75 -463.5z"
           id="path343" />
        <path
           transform="translate(25747, 4778.666666666667)rotate(180) scale(-1, 1)"
           stroke-width="0"
           fill="#000000"
           d="M285 0l606 1309h-797v153h973v-133l-598 -1329h-184z"
           id="path345" />
      </g>
    </g>
    <g
       transform="scale(0.0051903955078125)"
       id="g357">
      <g
         transform="translate(-1171,819)"
         id="g355">
        <path
           transform="translate(24576, 11605.333333333334)rotate(180) scale(-1, 1)"
           stroke-width="0"
           fill="#000000"
           d="M1069 733c0 -252.667 -39.833 -441.334 -119.5 -566.001s-201.5 -187 -365.5 -187c-157.333 0 -277 63.833 -359 191.5s-123 314.834 -123 561.501c0 254.667 39.667 443.667 119 567s200.333 185 363 185c158.667 0 279.167 -64.333 361.5 -193s123.5 -315 123.5 -559z M270 733c0 -212.667 25 -367.5 75 -464.5s129.667 -145.5 239 -145.5c110.667 0 190.834 49.167 240.501 147.5s74.5 252.5 74.5 462.5s-24.833 363.833 -74.5 461.5s-129.834 146.5 -240.501 146.5c-109.333 0 -189 -48.167 -239 -144.5s-75 -250.833 -75 -463.5z"
           id="path351" />
        <path
           transform="translate(25747, 11605.333333333334)rotate(180) scale(-1, 1)"
           stroke-width="0"
           fill="#000000"
           d="M584 1483c133.333 0 239.001 -30.999 317.001 -92.999s117 -147.667 117 -257c0 -72 -22.333 -137.667 -67 -197s-116 -113.333 -214 -162c118.667 -56.667 203 -116.167 253 -178.5s75 -134.5 75 -216.5c0 -121.333 -42.333 -218.166 -127 -290.499 s-200.667 -108.5 -348 -108.5c-156 0 -276 34.167 -360 102.5s-126 165.166 -126 290.499c0 167.333 102 297.666 306 390.999c-92 52 -158 108.167 -198 168.5s-60 127.833 -60 202.5c0 106 39.167 190.5 117.5 253.5s183.166 94.5 314.499 94.5zM268.001 369.001 c0 -80 27.833 -142.331 83.5 -186.998s133.834 -67 234.501 -67c99.333 0 176.666 23.333 231.999 70s83 110.667 83 192c0 64.667 -26 122.167 -78 172.5s-142.667 99.166 -272 146.499c-99.333 -42.667 -171.333 -89.834 -216 -141.501s-67 -113.5 -67 -185.5z M582.001 1348c-83.333 0 -148.667 -20 -196 -60s-71 -93.333 -71 -160c0 -61.333 19.667 -114 59 -158s112 -88 218 -132c95.333 40 162.833 83 202.5 129s59.5 99.667 59.5 161c0 67.333 -24.167 120.833 -72.5 160.5s-114.833 59.5 -199.5 59.5z"
           id="path353" />
      </g>
    </g>
    <g
       transform="scale(0.0051903955078125)"
       id="g373">
      <g
         transform="translate(-1171,819)"
         id="g371">
        <path
           transform="translate(30720, 4778.666666666667)rotate(180) scale(-1, 1)"
           stroke-width="0"
           fill="#000000"
           d="M1069 733c0 -252.667 -39.833 -441.334 -119.5 -566.001s-201.5 -187 -365.5 -187c-157.333 0 -277 63.833 -359 191.5s-123 314.834 -123 561.501c0 254.667 39.667 443.667 119 567s200.333 185 363 185c158.667 0 279.167 -64.333 361.5 -193s123.5 -315 123.5 -559z M270 733c0 -212.667 25 -367.5 75 -464.5s129.667 -145.5 239 -145.5c110.667 0 190.834 49.167 240.501 147.5s74.5 252.5 74.5 462.5s-24.833 363.833 -74.5 461.5s-129.834 146.5 -240.501 146.5c-109.333 0 -189 -48.167 -239 -144.5s-75 -250.833 -75 -463.5z"
           id="path367" />
        <path
           transform="translate(31891, 4778.666666666667)rotate(180) scale(-1, 1)"
           stroke-width="0"
           fill="#000000"
           d="M1061 838c0 -572 -221.332 -857.999 -663.999 -857.999c-77.333 0 -138.666 6.66699 -183.999 20v143c53.333 -17.333 114 -26 182 -26c160 0 280.833 49.5 362.5 148.5s126.167 250.833 133.5 455.5h-12c-36.667 -55.333 -85.334 -97.5 -146.001 -126.5 s-129 -43.5 -205 -43.5c-129.333 0 -232 38.667 -308 116s-114 185.333 -114 324c0 152 42.5 272 127.5 360s196.833 132 335.5 132c99.333 0 186.166 -25.5 260.499 -76.5s131.5 -125.333 171.5 -223s60 -212.834 60 -345.501zM569.001 1341 c-95.333 0 -169 -30.6699 -221 -92.0029s-78 -146.666 -78 -255.999c0 -96 24 -171.5 72 -226.5s121 -82.5 219 -82.5c60.667 0 116.5 12.333 167.5 37s91.167 58.334 120.5 101.001s44 87.334 44 134.001c0 70 -13.667 134.667 -41 194s-65.5 106 -114.5 140 s-105.167 51 -168.5 51z"
           id="path369" />
      </g>
    </g>
    <g
       transform="scale(0.0051903955078125)"
       id="g381">
      <g
         transform="translate(-1171,819)"
         id="g379">
        <path
           transform="translate(30720, 11605.333333333334)rotate(180) scale(-1, 1)"
           stroke-width="0"
           fill="#000000"
           d="M715 0h-162.001v1042c0 86.667 2.66699 168.667 8 246c-14 -14 -29.667 -28.667 -47 -44s-96.666 -80.333 -237.999 -195l-88 114l387 299h140v-1462z"
           id="path375" />
        <path
           transform="translate(31891, 11605.333333333334)rotate(180) scale(-1, 1)"
           stroke-width="0"
           fill="#000000"
           d="M1069 733c0 -252.667 -39.833 -441.334 -119.5 -566.001s-201.5 -187 -365.5 -187c-157.333 0 -277 63.833 -359 191.5s-123 314.834 -123 561.501c0 254.667 39.667 443.667 119 567s200.333 185 363 185c158.667 0 279.167 -64.333 361.5 -193s123.5 -315 123.5 -559z M270 733c0 -212.667 25 -367.5 75 -464.5s129.667 -145.5 239 -145.5c110.667 0 190.834 49.167 240.501 147.5s74.5 252.5 74.5 462.5s-24.833 363.833 -74.5 461.5s-129.834 146.5 -240.501 146.5c-109.333 0 -189 -48.167 -239 -144.5s-75 -250.833 -75 -463.5z"
           id="path377" />
      </g>
    </g>
    <g
       transform="scale(0.0051903955078125)"
       id="g389">
      <g
         transform="translate(-1171,819)"
         id="g387">
        <path
           transform="translate(37546.666666666664, 11605.333333333334)rotate(180) scale(-1, 1)"
           stroke-width="0"
           fill="#000000"
           d="M715 0h-162.001v1042c0 86.667 2.66699 168.667 8 246c-14 -14 -29.667 -28.667 -47 -44s-96.666 -80.333 -237.999 -195l-88 114l387 299h140v-1462z"
           id="path383" />
        <path
           transform="translate(38717.666666666664, 11605.333333333334)rotate(180) scale(-1, 1)"
           stroke-width="0"
           fill="#000000"
           d="M1061 0l-961 0.000976562v143l385 387c117.333 118.667 194.666 203.334 231.999 254.001s65.333 100 84 148s28 99.667 28 155c0 78 -23.667 139.833 -71 185.5s-113 68.5 -197 68.5c-60.667 0 -118.167 -10 -172.5 -30s-114.833 -56.333 -181.5 -109l-88 113 c134.667 112 281.334 168 440.001 168c137.333 0 245 -35.167 323 -105.5s117 -164.833 117 -283.5c0 -92.667 -26 -184.334 -78 -275.001s-149.333 -205.334 -292 -344.001l-320 -313v-8h752v-154z"
           id="path385" />
      </g>
    </g>
    <g
       transform="scale(0.0051903955078125)"
       id="g397">
      <g
         transform="translate(-1171,819)"
         id="g395">
        <path
           transform="translate(37546.666666666664, 4778.666666666667)rotate(180) scale(-1, 1)"
           stroke-width="0"
           fill="#000000"
           d="M715 0h-162.001v1042c0 86.667 2.66699 168.667 8 246c-14 -14 -29.667 -28.667 -47 -44s-96.666 -80.333 -237.999 -195l-88 114l387 299h140v-1462z"
           id="path391" />
        <path
           transform="translate(38717.666666666664, 4778.666666666667)rotate(180) scale(-1, 1)"
           stroke-width="0"
           fill="#000000"
           d="M715 0h-162.001v1042c0 86.667 2.66699 168.667 8 246c-14 -14 -29.667 -28.667 -47 -44s-96.666 -80.333 -237.999 -195l-88 114l387 299h140v-1462z"
           id="path393" />
      </g>
    </g>
    <g
       transform="scale(0.0051903955078125)"
       id="g405">
      <g
         transform="translate(-1171,819)"
         id="g403">
        <path
           transform="translate(46421.333333333336, 17066.666666666668)rotate(180) scale(-1, 1)"
           stroke-width="0"
           fill="#000000"
           d="M715 0h-162.001v1042c0 86.667 2.66699 168.667 8 246c-14 -14 -29.667 -28.667 -47 -44s-96.666 -80.333 -237.999 -195l-88 114l387 299h140v-1462z"
           id="path399" />
        <path
           transform="translate(47592.333333333336, 17066.666666666668)rotate(180) scale(-1, 1)"
           stroke-width="0"
           fill="#000000"
           d="M1006 1118c0 -93.333 -26.167 -169.667 -78.5 -229s-126.5 -99 -222.5 -119v-8c117.333 -14.667 204.333 -52 261 -112s85 -138.667 85 -236c0 -139.333 -48.333 -246.5 -145 -321.5s-234 -112.5 -412 -112.5c-77.333 0 -148.166 5.83301 -212.499 17.5 s-126.833 32.167 -187.5 61.5v158c63.333 -31.333 130.833 -55.166 202.5 -71.499s139.5 -24.5 203.5 -24.5c252.667 0 379 99 379 297c0 177.333 -139.333 266 -418 266h-144v143h146c114 0 204.333 25.167 271 75.5s100 120.166 100 209.499 c0 71.333 -24.5 127.333 -73.5 168s-115.5 61 -199.5 61c-64 0 -124.333 -8.66699 -181 -26s-121.334 -49.333 -194.001 -96l-84 112c60 47.333 129.167 84.5 207.5 111.5s160.833 40.5 247.5 40.5c142 0 252.333 -32.5 331 -97.5s118 -154.167 118 -267.5z"
           id="path401" />
      </g>
    </g>
    <g
       transform="scale(0.0051903955078125)"
       id="g413">
      <g
         transform="translate(-1171,819)"
         id="g411">
        <path
           transform="translate(52565.33333333334, 4778.666666666667)rotate(180) scale(-1, 1)"
           stroke-width="0"
           fill="#000000"
           d="M715 0h-162.001v1042c0 86.667 2.66699 168.667 8 246c-14 -14 -29.667 -28.667 -47 -44s-96.666 -80.333 -237.999 -195l-88 114l387 299h140v-1462z"
           id="path407" />
        <path
           transform="translate(53736.33333333334, 4778.666666666667)rotate(180) scale(-1, 1)"
           stroke-width="0"
           fill="#000000"
           d="M1130 336h-217v-336h-159v336h-711v145l694 989h176v-983h217v-151zM754 487v486c0 95.333 3.33301 203 10 323h-8c-32 -64 -62 -117 -90 -159l-457 -650h545z"
           id="path409" />
      </g>
    </g>
    <g
       transform="scale(0.0051903955078125)"
       id="g421">
      <g
         transform="translate(-1171,819)"
         id="g419">
        <path
           transform="translate(60074.66666666667, 17066.666666666668)rotate(180) scale(-1, 1)"
           stroke-width="0"
           fill="#000000"
           d="M715 0h-162.001v1042c0 86.667 2.66699 168.667 8 246c-14 -14 -29.667 -28.667 -47 -44s-96.666 -80.333 -237.999 -195l-88 114l387 299h140v-1462z"
           id="path415" />
        <path
           transform="translate(61245.66666666667, 17066.666666666668)rotate(180) scale(-1, 1)"
           stroke-width="0"
           fill="#000000"
           d="M557 893c154 0 275.168 -38.167 363.501 -114.5s132.5 -180.833 132.5 -313.5c0 -151.333 -48.167 -270 -144.5 -356s-229.166 -129 -398.499 -129c-164.667 0 -290.334 26.333 -377.001 79v160c46.667 -30 104.667 -53.5 174 -70.5s137.666 -25.5 204.999 -25.5 c117.333 0 208.5 27.667 273.5 83s97.5 135.333 97.5 240c0 204 -125 306 -375 306c-63.333 0 -148 -9.66699 -254 -29l-86 55l55 684h727v-153h-585l-37 -439c76.667 15.333 153 23 229 23z"
           id="path417" />
      </g>
    </g>
    <g
       transform="scale(0.0051903955078125)"
       id="g429">
      <g
         transform="translate(-1171,819)"
         id="g427">
        <path
           transform="translate(66218.66666666667, 4778.666666666667)rotate(180) scale(-1, 1)"
           stroke-width="0"
           fill="#000000"
           d="M715 0h-162.001v1042c0 86.667 2.66699 168.667 8 246c-14 -14 -29.667 -28.667 -47 -44s-96.666 -80.333 -237.999 -195l-88 114l387 299h140v-1462z"
           id="path423" />
        <path
           transform="translate(67389.66666666667, 4778.666666666667)rotate(180) scale(-1, 1)"
           stroke-width="0"
           fill="#000000"
           d="M117 625c0 287.333 55.834 502.166 167.501 644.499s276.834 213.5 495.501 213.5c75.333 0 134.666 -6.33301 177.999 -19v-143c-51.333 16.667 -110 25 -176 25c-156.667 0 -276.334 -48.833 -359.001 -146.5s-128 -251.167 -136 -460.5h12 c73.333 114.667 189.333 172 348 172c131.333 0 234.833 -39.667 310.5 -119s113.5 -187 113.5 -323c0 -152 -41.5 -271.5 -124.5 -358.5s-195.167 -130.5 -336.5 -130.5c-151.333 0 -271.333 56.833 -360 170.5s-133 271.834 -133 474.501zM608.001 121 c94.667 0 168.168 29.832 220.501 89.499s78.5 145.834 78.5 258.501c0 96.667 -24.333 172.667 -73 228s-121.334 83 -218.001 83c-60 0 -115 -12.333 -165 -37s-89.833 -58.667 -119.5 -102s-44.5 -88.333 -44.5 -135c0 -68.667 13.333 -132.667 40 -192 s64.5 -106.333 113.5 -141s104.833 -52 167.5 -52z"
           id="path425" />
      </g>
    </g>
    <g
       transform="scale(0.0051904)"
       id="g437">
      <g
         transform="translate(-1171,819)"
         id="g435">
        <path
           transform="matrix(1,0,0,-1,4096,4778.6667)"
           d="m 1069,733 c 0,-252.667 -39.833,-441.334 -119.5,-566.001 -79.667,-124.667 -201.5,-187 -365.5,-187 -157.333,0 -277,63.833 -359,191.5 C 143,299.166 102,486.333 102,733 c 0,254.667 39.667,443.667 119,567 79.333,123.333 200.333,185 363,185 158.667,0 279.167,-64.333 361.5,-193 82.333,-128.667 123.5,-315 123.5,-559 z m -799,0 c 0,-212.667 25,-367.5 75,-464.5 50,-97 129.667,-145.5 239,-145.5 110.667,0 190.834,49.167 240.501,147.5 49.667,98.333 74.5,252.5 74.5,462.5 0,210 -24.833,363.833 -74.5,461.5 C 774.834,1292.167 694.667,1341 584,1341 474.667,1341 395,1292.833 345,1196.5 295,1100.167 270,945.667 270,733 Z"
           id="path431"
           inkscape:connector-curvature="0"
           style="fill:#000000;stroke-width:0" />
        <path
           transform="matrix(1,0,0,-1,5267,4778.6667)"
           d="M 715,0 H 552.999 v 1042 c 0,86.667 2.66699,168.667 8,246 -14,-14 -29.667,-28.667 -47,-44 C 496.666,1228.667 417.333,1163.667 276,1049 l -88,114 387,299 h 140 z"
           id="path433"
           inkscape:connector-curvature="0"
           style="fill:#000000;stroke-width:0" />
      </g>
    </g>
  </g>
  <!-- Bottom-->
  <g
     transform="translate(447.69721849999996, 164.2324185) "
     id="g443">
    <polygon
       style="stroke:#000000; fill:none; stroke-width:0.90000074"
       points="10.62993, 10.62993 26.574825, 10.62993 26.574825, 0 53.14965, 0 53.14965, 10.62993 74.40951, 10.62993 74.40951, 0 95.66937, 0 95.66937, 10.62993 116.92922999999999, 10.62993 116.92922999999999, 0 138.18909, 0 138.18909, 10.62993 159.44895, 10.62993 159.44895, 0 180.70881, 0 180.70881, 10.62993 201.96867, 10.62993 201.96867, 0 223.22853, 0 223.22853, 10.62993 244.48839, 10.62993 244.48839, 0 265.74825, 0 265.74825, 10.62993 287.00811, 10.62993 287.00811, 0 308.26797, 0 308.26797, 10.62993 329.52783, 10.62993 329.52783, 0 350.78769, 0 350.78769, 10.62993 372.04755, 10.62993 372.04755, 0 398.622375, 0 398.622375, 10.62993 414.56727, 10.62993 414.56727, 21.25986 425.1972, 21.25986 425.1972, 42.51972 414.56727, 42.51972 414.56727, 63.779579999999996 425.1972, 63.779579999999996 425.1972, 85.03944 414.56727, 85.03944 414.56727, 95.66937 398.622375, 95.66937 398.622375, 106.2993 372.04755, 106.2993 372.04755, 95.66937 350.78769, 95.66937 350.78769, 106.2993 329.52783, 106.2993 329.52783, 95.66937 308.26797, 95.66937 308.26797, 106.2993 287.00811, 106.2993 287.00811, 95.66937 265.74825, 95.66937 265.74825, 106.2993 244.48839, 106.2993 244.48839, 95.66937 223.22853, 95.66937 223.22853, 106.2993 201.96867, 106.2993 201.96867, 95.66937 180.70881, 95.66937 180.70881, 106.2993 159.44895, 106.2993 159.44895, 95.66937 138.18909, 95.66937 138.18909, 106.2993 116.92922999999999, 106.2993 116.92922999999999, 95.66937 95.66937, 95.66937 95.66937, 106.2993 74.40951, 106.2993 74.40951, 95.66937 53.14965, 95.66937 53.14965, 106.2993 26.574825, 106.2993 26.574825, 95.66937 10.62993, 95.66937 10.62993, 85.03944 0, 85.03944 0, 63.779579999999996 10.62993, 63.779579999999996 10.62993, 42.51972 0, 42.51972 0, 21.25986 10.62993, 21.25986 "
       id="polygon441" />
  </g>
</svg>
